<svg width="104" height="100" viewBox="0 0 104 100" fill="none" xmlns="http://www.w3.org/2000/svg">
<path d="M65.9386 88.5627H66.9078L67.3061 87.6791L70.3731 80.8756L78.8522 78.7427L79.9863 78.4575V77.2881V13.1472C79.9863 11.5612 78.7006 10.2754 77.1145 10.2754H4.57107C2.98499 10.2754 1.69922 11.5612 1.69922 13.1472V85.6908C1.69922 87.2769 2.98499 88.5627 4.57107 88.5627H65.9386Z" stroke="#4F79FF" stroke-width="3"/>
<path d="M41.9329 87H4.36662C3.61185 87 3 86.3881 3 85.6334V13.3666C3 12.6119 3.61185 12 4.36662 12H76.6334C77.3881 12 78 12.6119 78 13.3666V82.6614L62 87H41.9329Z" fill="white"/>
<path d="M42.2811 83.6199H4.57107C3.81342 83.6199 3.19922 83.0338 3.19922 82.3108V13.0845C3.19922 12.3615 3.81342 11.7754 4.57107 11.7754H77.1145C77.8721 11.7754 78.4863 12.3615 78.4863 13.0845V79.4638H45.6463L42.2811 83.6199Z" fill="#EEF2FF"/>
<path d="M63.4485 33.0577L58.719 33.0577C58.1148 33.0471 57.5519 33.3635 57.2467 33.8851C56.9415 34.4067 56.9415 35.0524 57.2467 35.574C57.5519 36.0956 58.1148 36.4119 58.719 36.4014L63.4485 36.4014C64.3606 36.3856 65.0916 35.6417 65.0916 34.7295C65.0916 33.8174 64.3606 33.0735 63.4485 33.0577Z" fill="#4F79FF"/>
<path d="M45.6026 34.7304C45.6028 35.6536 46.3512 36.4021 47.2745 36.4022L52.004 36.4022C52.916 36.3864 53.6471 35.6425 53.6471 34.7303C53.6471 33.8182 52.9161 33.0743 52.004 33.0585L47.2745 33.0585C46.3512 33.0586 45.6028 33.8071 45.6026 34.7304Z" fill="#4F79FF"/>
<path fill-rule="evenodd" clip-rule="evenodd" d="M18.293 36.4004C17.3697 36.4003 16.6212 35.6518 16.6211 34.7285C16.6212 33.8052 17.3697 33.0568 18.293 33.0566H22.7852L23.0225 33.0566C23.0225 33.0566 23.0226 33.0566 23.0227 33.0566H27.5L27.5147 33.0566L27.5149 33.0566H32.2149L32.2295 33.0566L32.2297 33.0566H36.6524L36.9444 33.0566L36.9445 33.0566L41.3819 33.0566C42.2939 33.0725 43.0249 33.8164 43.0249 34.7285C43.0249 35.6407 42.2939 36.3845 41.3819 36.4004H36.9444L36.6523 36.4004L36.6492 36.4004L32.2295 36.4004L32.2148 36.4004L32.2116 36.4004H27.5147L27.5 36.4004L27.4968 36.4004H23.0225L22.7852 36.4004C22.7841 36.4004 22.7831 36.4004 22.782 36.4004L18.293 36.4004Z" fill="#4F79FF"/>
<path d="M46.1282 60.0577L41.3987 60.0577C40.7945 60.0471 40.2316 60.3635 39.9264 60.8851C39.6212 61.4067 39.6212 62.0524 39.9264 62.574C40.2316 63.0956 40.7945 63.4119 41.3987 63.4014L46.1282 63.4014C47.0402 63.3856 47.7713 62.6417 47.7713 61.7295C47.7713 60.8174 47.0402 60.0735 46.1282 60.0577Z" fill="#4F79FF"/>
<path d="M28.2823 61.7304C28.2825 62.6536 29.0309 63.4021 29.9542 63.4022L34.6837 63.4022C35.5957 63.3864 36.3268 62.6425 36.3268 61.7303C36.3268 60.8182 35.5957 60.0743 34.6837 60.0585L29.9542 60.0585C29.0309 60.0586 28.2825 60.8071 28.2823 61.7304Z" fill="#4F79FF"/>
<path d="M16.6222 61.7284C16.6223 62.6517 17.3708 63.4001 18.2941 63.4003L23.0236 63.4003C23.9356 63.3844 24.6666 62.6406 24.6666 61.7284C24.6666 60.8162 23.9356 60.0724 23.0236 60.0565L18.2941 60.0565C17.3708 60.0567 16.6223 60.8051 16.6222 61.7284Z" fill="#4F79FF"/>
<path d="M16.6222 71.1014C16.6223 72.0247 17.3708 72.7732 18.2941 72.7733L23.0236 72.7733C23.9356 72.7575 24.6666 72.0136 24.6666 71.1014C24.6666 70.1893 23.9356 69.4454 23.0236 69.4296L18.2941 69.4296C17.3708 69.4297 16.6223 70.1781 16.6222 71.1014Z" fill="#4F79FF"/>
<path d="M7.10812 85.691V13.1472C7.10812 12.3896 7.35313 11.7754 7.65536 11.7754H3.74646C3.44423 11.7754 3.19922 12.3896 3.19922 13.1472V85.6908C3.19922 86.4485 3.44423 87.0627 3.74646 87.0627H7.65536C7.35313 87.0629 7.10812 86.4487 7.10812 85.691Z" fill="#B2C4FF"/>
<path opacity="0.3" d="M47.1182 20.7469L45.026 21.9588L42.9337 20.7469L40.8428 21.9588L38.7513 20.7469L36.6606 21.9588L34.5703 20.7469V1.37185C34.5703 0.614197 35.1845 0 35.9422 0H45.7464C46.504 0 47.1182 0.614197 47.1182 1.37185V20.7469Z" fill="#4F79FF"/>
<path d="M40.4497 20.7469V1.37185C40.4497 0.614197 41.0639 0 41.8215 0H35.9422C35.1845 0 34.5703 0.614197 34.5703 1.37185V20.7469L36.6606 21.9588L38.7513 20.7469L40.8428 21.9588L41.6914 21.4669L40.4497 20.7469Z" fill="#4F79FF"/>
<path d="M63.6977 46.0298H41.011C40.1744 46.0298 39.4961 45.3517 39.4961 44.5149C39.4961 43.6783 40.1742 43 41.011 43H63.6977C64.5343 43 65.2126 43.6781 65.2126 44.5149C65.2126 45.3517 64.5345 46.0298 63.6977 46.0298Z" fill="#4F79FF"/>
<path d="M34.4082 46.0298H17.9954C17.1587 46.0298 16.4805 45.3517 16.4805 44.5149C16.4805 43.6783 17.1586 43 17.9954 43H34.4082C35.2448 43 35.9231 43.6781 35.9231 44.5149C35.9231 45.3517 35.245 46.0298 34.4082 46.0298Z" fill="#4F79FF"/>
<path d="M63.6968 54.272H17.9954C17.1587 54.272 16.4805 53.5939 16.4805 52.7571C16.4805 51.9205 17.1586 51.2422 17.9954 51.2422H63.697C64.5336 51.2422 65.2119 51.9203 65.2119 52.7571C65.2117 53.5939 64.5336 54.272 63.6968 54.272Z" fill="#4F79FF"/>
<rect x="59" y="56" width="44" height="44" rx="22" fill="white"/>
<path fill-rule="evenodd" clip-rule="evenodd" d="M90.6031 58.2056C91.1001 58.4467 91.2792 59.056 91.0159 59.5414L90.2135 61.0203C89.9501 61.5058 89.3441 61.6831 88.845 61.4466C85.4881 59.8561 81.7185 59.3203 78.0373 59.9239C74.0263 60.5815 70.348 62.5544 67.5814 65.5318C64.8148 68.5092 63.117 72.3222 62.7554 76.3703C62.3938 80.4185 63.3888 84.4719 65.5839 87.8925C67.779 91.3131 71.0494 93.9066 74.8803 95.2646C78.7112 96.6227 82.885 96.6682 86.7446 95.394C90.6042 94.1198 93.9304 91.5982 96.1995 88.2263C98.2821 85.1315 99.3657 81.4818 99.3185 77.7676C99.3115 77.2154 99.7252 76.7384 100.276 76.7012L101.955 76.5881C102.506 76.551 102.985 76.9677 102.997 77.5199C103.096 82.0499 101.794 86.5094 99.2549 90.2821C96.5296 94.3319 92.5347 97.3604 87.8992 98.8908C83.2637 100.421 78.2508 100.367 73.6497 98.7355C69.0487 97.1044 65.1208 93.9895 62.4844 89.8813C59.8481 85.773 58.653 80.9047 59.0873 76.0427C59.5216 71.1807 61.5607 66.6012 64.8835 63.0252C68.2063 59.4492 72.6241 57.0798 77.4414 56.2899C81.9291 55.5541 86.5261 56.2281 90.6031 58.2056ZM90.7678 68.2323C91.7441 69.2087 91.7441 70.7916 90.7678 71.7679L84.5356 78.0001L90.7678 84.2323C91.7441 85.2087 91.7441 86.7916 90.7678 87.7679C89.7915 88.7442 88.2086 88.7442 87.2323 87.7679L81 81.5356L74.7678 87.7679C73.7915 88.7442 72.2086 88.7442 71.2323 87.7679C70.2559 86.7916 70.2559 85.2087 71.2323 84.2323L77.4645 78.0001L71.2323 71.7679C70.2559 70.7916 70.2559 69.2087 71.2323 68.2323C72.2086 67.256 73.7915 67.256 74.7678 68.2323L81 74.4646L87.2323 68.2323C88.2086 67.256 89.7915 67.256 90.7678 68.2323Z" fill="#F67F61"/>
</svg>
