<svg width="18" height="18" viewBox="0 0 18 18" fill="none" xmlns="http://www.w3.org/2000/svg">
<path fill-rule="evenodd" clip-rule="evenodd" d="M17.1686 15.6801L12.5301 11.0763C13.4647 9.76089 13.9494 8.09935 13.707 6.33397C13.2917 3.35704 10.8686 1.0032 7.85705 0.726274C3.77243 0.31089 0.310895 3.77243 0.72628 7.89166C1.0032 10.8686 3.35705 13.3263 6.33397 13.7417C8.09936 13.984 9.76089 13.4994 11.0763 12.5647L15.6801 17.1686C15.8878 17.3763 16.1994 17.3763 16.407 17.1686L17.134 16.4417C17.3417 16.234 17.3417 15.8878 17.1686 15.6801ZM2.7666 7.23351C2.7666 4.77582 4.77429 2.76813 7.23199 2.76813C9.68968 2.76813 11.6974 4.77582 11.6974 7.23351C11.6974 9.6912 9.68968 11.6989 7.23199 11.6989C4.77429 11.6989 2.7666 9.72582 2.7666 7.23351Z" fill="#4F79FF"/>
<mask id="mask0" mask-type="alpha" maskUnits="userSpaceOnUse" x="0" y="0" width="18" height="18">
<path fill-rule="evenodd" clip-rule="evenodd" d="M17.1686 15.6801L12.5301 11.0763C13.4647 9.76089 13.9494 8.09935 13.707 6.33397C13.2917 3.35704 10.8686 1.0032 7.85705 0.726274C3.77243 0.31089 0.310895 3.77243 0.72628 7.89166C1.0032 10.8686 3.35705 13.3263 6.33397 13.7417C8.09936 13.984 9.76089 13.4994 11.0763 12.5647L15.6801 17.1686C15.8878 17.3763 16.1994 17.3763 16.407 17.1686L17.134 16.4417C17.3417 16.234 17.3417 15.8878 17.1686 15.6801ZM2.7666 7.23351C2.7666 4.77582 4.77429 2.76813 7.23199 2.76813C9.68968 2.76813 11.6974 4.77582 11.6974 7.23351C11.6974 9.6912 9.68968 11.6989 7.23199 11.6989C4.77429 11.6989 2.7666 9.72582 2.7666 7.23351Z" fill="white"/>
</mask>
<g mask="url(#mask0)">
<path fill-rule="evenodd" clip-rule="evenodd" d="M-1 -1H18V18H-1V-1Z" fill="#4F79FF"/>
</g>
</svg>
