<svg width="40" height="40" viewBox="0 0 40 40" fill="none" xmlns="http://www.w3.org/2000/svg">
<circle cx="20" cy="20" r="20" fill="white"/>
<circle cx="20" cy="20" r="16" fill="#4F79FF"/>
<path d="M19.9996 16.6192C18.136 16.6192 16.6185 18.136 16.6185 19.9996C16.6185 21.864 18.136 23.3815 19.9996 23.3815C21.864 23.3815 23.3808 21.864 23.3808 19.9996C23.3808 18.136 21.864 16.6192 19.9996 16.6192ZM19.9996 16.6192C18.136 16.6192 16.6185 18.136 16.6185 19.9996C16.6185 21.864 18.136 23.3815 19.9996 23.3815C21.864 23.3815 23.3808 21.864 23.3808 19.9996C23.3808 18.136 21.864 16.6192 19.9996 16.6192ZM19.9996 25.8554C16.7714 25.8554 14.1446 23.2286 14.1446 19.9996C14.1446 16.7714 16.7714 14.1446 19.9996 14.1446C23.2286 14.1446 25.8554 16.7714 25.8554 19.9996C25.8554 23.2286 23.2286 25.8554 19.9996 25.8554ZM26.0434 15.3554C25.2795 15.3554 24.658 14.734 24.658 13.97C24.658 13.206 25.2795 12.5846 26.0434 12.5846C26.8074 12.5846 27.4289 13.206 27.4289 13.97C27.4289 14.734 26.8074 15.3554 26.0434 15.3554ZM19.9996 16.6192C18.136 16.6192 16.6185 18.136 16.6185 19.9996C16.6185 21.864 18.136 23.3815 19.9996 23.3815C21.864 23.3815 23.3808 21.864 23.3808 19.9996C23.3808 18.136 21.864 16.6192 19.9996 16.6192ZM19.9996 25.8554C16.7714 25.8554 14.1446 23.2286 14.1446 19.9996C14.1446 16.7714 16.7714 14.1446 19.9996 14.1446C23.2286 14.1446 25.8554 16.7714 25.8554 19.9996C25.8554 23.2286 23.2286 25.8554 19.9996 25.8554ZM26.0434 15.3554C25.2795 15.3554 24.658 14.734 24.658 13.97C24.658 13.206 25.2795 12.5846 26.0434 12.5846C26.8074 12.5846 27.4289 13.206 27.4289 13.97C27.4289 14.734 26.8074 15.3554 26.0434 15.3554ZM19.9996 16.6192C18.136 16.6192 16.6185 18.136 16.6185 19.9996C16.6185 21.864 18.136 23.3815 19.9996 23.3815C21.864 23.3815 23.3808 21.864 23.3808 19.9996C23.3808 18.136 21.864 16.6192 19.9996 16.6192ZM20 3C10.6112 3 3 10.6112 3 20C3 29.3888 10.6112 37 20 37C29.3888 37 37 29.3888 37 20C37 10.6112 29.3888 3 20 3ZM31.3673 25.6323C31.3673 28.7949 28.7949 31.3673 25.6323 31.3673H14.3677C11.2051 31.3673 8.63272 28.7949 8.63272 25.6323V14.3677C8.63272 11.2051 11.2051 8.63272 14.3677 8.63272H25.6323C28.7949 8.63272 31.3673 11.2051 31.3673 14.3677V25.6323ZM19.9996 25.8554C16.7714 25.8554 14.1446 23.2286 14.1446 19.9996C14.1446 16.7714 16.7714 14.1446 19.9996 14.1446C23.2286 14.1446 25.8554 16.7714 25.8554 19.9996C25.8554 23.2286 23.2286 25.8554 19.9996 25.8554ZM26.0434 15.3554C25.2795 15.3554 24.658 14.734 24.658 13.97C24.658 13.206 25.2795 12.5846 26.0434 12.5846C26.8074 12.5846 27.4289 13.206 27.4289 13.97C27.4289 14.734 26.8074 15.3554 26.0434 15.3554ZM19.9996 16.6192C18.136 16.6192 16.6185 18.136 16.6185 19.9996C16.6185 21.864 18.136 23.3815 19.9996 23.3815C21.864 23.3815 23.3808 21.864 23.3808 19.9996C23.3808 18.136 21.864 16.6192 19.9996 16.6192ZM19.9996 16.6192C18.136 16.6192 16.6185 18.136 16.6185 19.9996C16.6185 21.864 18.136 23.3815 19.9996 23.3815C21.864 23.3815 23.3808 21.864 23.3808 19.9996C23.3808 18.136 21.864 16.6192 19.9996 16.6192ZM19.9996 16.6192C18.136 16.6192 16.6185 18.136 16.6185 19.9996C16.6185 21.864 18.136 23.3815 19.9996 23.3815C21.864 23.3815 23.3808 21.864 23.3808 19.9996C23.3808 18.136 21.864 16.6192 19.9996 16.6192ZM19.9996 25.8554C16.7714 25.8554 14.1446 23.2286 14.1446 19.9996C14.1446 16.7714 16.7714 14.1446 19.9996 14.1446C23.2286 14.1446 25.8554 16.7714 25.8554 19.9996C25.8554 23.2286 23.2286 25.8554 19.9996 25.8554ZM26.0434 15.3554C25.2795 15.3554 24.658 14.734 24.658 13.97C24.658 13.206 25.2795 12.5846 26.0434 12.5846C26.8074 12.5846 27.4289 13.206 27.4289 13.97C27.4289 14.734 26.8074 15.3554 26.0434 15.3554ZM19.9996 16.6192C18.136 16.6192 16.6185 18.136 16.6185 19.9996C16.6185 21.864 18.136 23.3815 19.9996 23.3815C21.864 23.3815 23.3808 21.864 23.3808 19.9996C23.3808 18.136 21.864 16.6192 19.9996 16.6192ZM19.9996 16.6192C18.136 16.6192 16.6185 18.136 16.6185 19.9996C16.6185 21.864 18.136 23.3815 19.9996 23.3815C21.864 23.3815 23.3808 21.864 23.3808 19.9996C23.3808 18.136 21.864 16.6192 19.9996 16.6192ZM19.9996 16.6192C18.136 16.6192 16.6185 18.136 16.6185 19.9996C16.6185 21.864 18.136 23.3815 19.9996 23.3815C21.864 23.3815 23.3808 21.864 23.3808 19.9996C23.3808 18.136 21.864 16.6192 19.9996 16.6192ZM19.9996 25.8554C16.7714 25.8554 14.1446 23.2286 14.1446 19.9996C14.1446 16.7714 16.7714 14.1446 19.9996 14.1446C23.2286 14.1446 25.8554 16.7714 25.8554 19.9996C25.8554 23.2286 23.2286 25.8554 19.9996 25.8554ZM26.0434 15.3554C25.2795 15.3554 24.658 14.734 24.658 13.97C24.658 13.206 25.2795 12.5846 26.0434 12.5846C26.8074 12.5846 27.4289 13.206 27.4289 13.97C27.4289 14.734 26.8074 15.3554 26.0434 15.3554ZM19.9996 16.6192C18.136 16.6192 16.6185 18.136 16.6185 19.9996C16.6185 21.864 18.136 23.3815 19.9996 23.3815C21.864 23.3815 23.3808 21.864 23.3808 19.9996C23.3808 18.136 21.864 16.6192 19.9996 16.6192Z" fill="white"/>
<circle cx="20" cy="20" r="4" fill="#4F79FF"/>
</svg>
