<svg width="24" height="24" viewBox="0 0 24 24" fill="none" xmlns="http://www.w3.org/2000/svg">
<path d="M16.2188 19.7812H7.78125C7.39294 19.7812 7.07812 20.0961 7.07812 20.4844C7.07812 20.8727 7.39294 21.1875 7.78125 21.1875H16.2188C16.6071 21.1875 16.9219 20.8727 16.9219 20.4844C16.9219 20.0961 16.6071 19.7812 16.2188 19.7812Z" fill="#019489"/>
<path d="M16.2188 14.1562H7.78125C7.39294 14.1562 7.07812 14.4711 7.07812 14.8594C7.07812 15.2477 7.39294 15.5625 7.78125 15.5625H16.2188C16.6071 15.5625 16.9219 15.2477 16.9219 14.8594C16.9219 14.4711 16.6071 14.1562 16.2188 14.1562Z" fill="#019489"/>
<path d="M16.2188 16.9688H7.78125C7.39294 16.9688 7.07812 17.2836 7.07812 17.6719C7.07812 18.0602 7.39294 18.375 7.78125 18.375H16.2188C16.6071 18.375 16.9219 18.0602 16.9219 17.6719C16.9219 17.2836 16.6071 16.9688 16.2188 16.9688Z" fill="#019489"/>
<path d="M13.9297 2H7.72656C7.17428 2 6.72656 2.44772 6.72656 3V6.07812C6.72656 6.63041 7.17428 7.07812 7.72656 7.07812H13.9297C14.482 7.07812 14.9297 6.63041 14.9297 6.07812V3C14.9297 2.44772 14.482 2 13.9297 2Z" fill="#019489"/>
<path d="M21.8284 5.29664L18.7034 2.17164C18.5935 2.06176 18.4445 2 18.2891 2H17.1016C16.5493 2 16.1016 2.44772 16.1016 3V7.66406C16.1016 7.98766 15.8392 8.25 15.5156 8.25H6.14062C5.81703 8.25 5.55469 7.98766 5.55469 7.66406V3C5.55469 2.44772 5.10697 2 4.55469 2H2.58594C2.26234 2 2 2.26234 2 2.58594V21.4141C2 21.7377 2.26234 22 2.58594 22C2.76738 22 21.1704 22 21.4141 22C21.7377 22 22 21.7377 22 21.4141V5.71094C22 5.55555 21.9382 5.40652 21.8284 5.29664ZM17.2734 19.8281C17.2734 20.3804 16.8257 20.8281 16.2734 20.8281H7.72656C7.17428 20.8281 6.72656 20.3804 6.72656 19.8281V13.625C6.72656 13.0727 7.17428 12.625 7.72656 12.625H16.2734C16.8257 12.625 17.2734 13.0727 17.2734 13.625V19.8281Z" fill="#019489"/>
</svg>
