<svg width="18" height="18" fill="none" xmlns="http://www.w3.org/2000/svg"><path fill-rule="evenodd" clip-rule="evenodd" d="M17.169 15.68l-4.639-4.604a6.594 6.594 0 001.177-4.742c-.415-2.977-2.838-5.33-5.85-5.608C3.772.311.311 3.772.727 7.892c.276 2.977 2.63 5.434 5.607 5.85a6.594 6.594 0 004.742-1.177l4.604 4.604c.208.207.52.207.727 0l.727-.727a.58.58 0 00.035-.762zM2.767 7.234a4.476 4.476 0 014.465-4.466 4.476 4.476 0 014.465 4.466 4.476 4.476 0 01-4.465 4.465 4.454 4.454 0 01-4.465-4.465z" fill="#4F79FF"/><mask id="a" maskUnits="userSpaceOnUse" x="0" y="0" width="18" height="18"><path fill-rule="evenodd" clip-rule="evenodd" d="M17.169 15.68l-4.639-4.604a6.594 6.594 0 001.177-4.742c-.415-2.977-2.838-5.33-5.85-5.608C3.772.311.311 3.772.727 7.892c.276 2.977 2.63 5.434 5.607 5.85a6.594 6.594 0 004.742-1.177l4.604 4.604c.208.207.52.207.727 0l.727-.727a.58.58 0 00.035-.762zM2.767 7.234a4.476 4.476 0 014.465-4.466 4.476 4.476 0 014.465 4.466 4.476 4.476 0 01-4.465 4.465 4.454 4.454 0 01-4.465-4.465z" fill="#fff"/></mask><g mask="url(#a)"><path fill-rule="evenodd" clip-rule="evenodd" d="M-1-1h19v19H-1V-1z" fill="#4F79FF"/></g></svg>