<svg width="24" height="24" viewBox="0 0 24 24" fill="none" xmlns="http://www.w3.org/2000/svg">
<path d="M13.5588 18.6209C13.4269 18.654 13.2923 18.6835 13.1588 18.7082C12.8098 18.7736 12.5791 19.1117 12.6436 19.4636C12.6755 19.6367 12.7731 19.7809 12.9056 19.8751C13.0422 19.9719 13.216 20.0156 13.3931 19.9824C13.5521 19.9527 13.7124 19.9177 13.8696 19.8782C14.2143 19.7918 14.4242 19.4401 14.3382 19.0931C14.2525 18.7458 13.9036 18.5344 13.5588 18.6209Z" fill="#BDBDBD"/>
<path d="M18.3117 9.93637C18.3567 10.0732 18.4427 10.1848 18.5514 10.262C18.7125 10.3763 18.9233 10.4147 19.1244 10.3477C19.4617 10.2349 19.6444 9.86857 19.5328 9.52902C19.482 9.37422 19.4256 9.21894 19.3655 9.06775C19.2336 8.73551 18.8595 8.57375 18.5295 8.70665C18.1998 8.83948 18.0392 9.21645 18.1712 9.5488C18.2217 9.67588 18.269 9.80631 18.3117 9.93637Z" fill="#BDBDBD"/>
<path d="M15.647 17.6963C15.5335 17.7718 15.4164 17.8448 15.2985 17.9132C14.9907 18.0921 14.8853 18.4884 15.0627 18.7983C15.1109 18.8826 15.1751 18.9515 15.249 19.0041C15.4474 19.1448 15.7169 19.1658 15.9412 19.0356C16.0815 18.9542 16.2209 18.8675 16.3561 18.7775C16.6523 18.5803 16.7339 18.1783 16.538 17.8797C16.3422 17.5811 15.9433 17.499 15.647 17.6963Z" fill="#BDBDBD"/>
<path d="M19.9343 11.7465C19.9203 11.3889 19.6213 11.1106 19.2662 11.1245C18.9115 11.1386 18.635 11.4399 18.6489 11.7974C18.6543 11.9341 18.6556 12.0728 18.6525 12.2093C18.6475 12.4336 18.7564 12.6335 18.9256 12.7536C19.0264 12.8251 19.1488 12.8684 19.2814 12.8715C19.6364 12.8794 19.9306 12.5958 19.9385 12.238C19.942 12.0748 19.9407 11.9095 19.9343 11.7465Z" fill="#BDBDBD"/>
<path d="M18.212 15.9912C17.9273 15.776 17.5246 15.8344 17.3114 16.1207C17.2297 16.2303 17.1437 16.3385 17.0557 16.4428C16.8256 16.7151 16.8581 17.1241 17.1284 17.3561C17.1438 17.3692 17.1594 17.3813 17.1756 17.3927C17.4443 17.5836 17.8178 17.5397 18.0351 17.2828C18.1403 17.1585 18.2427 17.0291 18.3403 16.8982C18.5535 16.612 18.4958 16.206 18.212 15.9912Z" fill="#BDBDBD"/>
<path d="M19.1546 13.649C18.8156 13.5419 18.4547 13.732 18.3485 14.0734C18.3078 14.2039 18.2628 14.3349 18.2142 14.4633C18.1074 14.7458 18.2097 15.0568 18.4442 15.2234C18.4873 15.2538 18.5347 15.2796 18.5861 15.2992C18.918 15.4268 19.2896 15.2591 19.4161 14.9247C19.4738 14.772 19.5274 14.6161 19.5759 14.461C19.682 14.1195 19.4934 13.756 19.1546 13.649Z" fill="#BDBDBD"/>
<path d="M10.751 18.7143C10.176 18.6102 9.62438 18.4331 9.10131 18.1861C9.09512 18.1829 9.08958 18.1792 9.08308 18.1762C8.95982 18.1177 8.83676 18.0551 8.71749 17.9897C8.71708 17.9892 8.71632 17.9889 8.71567 17.9886C8.49683 17.8673 8.28325 17.7329 8.07576 17.5858C5.0502 15.4388 4.32274 11.2126 6.45417 8.1648C6.91764 7.50232 7.47851 6.94962 8.10379 6.51157C8.1115 6.50617 8.1192 6.5008 8.12684 6.49536C10.3303 4.96599 13.3221 4.86292 15.6618 6.43449L15.1593 7.16588C15.0196 7.36945 15.1056 7.5178 15.3501 7.49563L17.5329 7.29878C17.7778 7.2766 17.9242 7.06322 17.8584 6.825L17.2722 4.69759C17.2066 4.45909 17.0386 4.43055 16.8987 4.63409L16.3951 5.36721C14.6781 4.20615 12.6187 3.76342 10.5746 4.12047C10.3688 4.15636 10.1658 4.20029 9.96559 4.25143C9.96404 4.25171 9.9628 4.25188 9.96157 4.25216C9.95383 4.25406 9.94598 4.25659 9.93845 4.25871C8.17585 4.71467 6.63799 5.75025 5.54064 7.22779C5.53139 7.23884 5.52186 7.24965 5.51312 7.26167C5.47663 7.31118 5.44042 7.36183 5.40496 7.41248C5.34697 7.49549 5.28981 7.58058 5.23513 7.66567C5.22829 7.67592 5.22306 7.68635 5.21707 7.69671C4.31152 9.11026 3.87474 10.7445 3.94965 12.4082C3.94982 12.4137 3.94951 12.4192 3.94965 12.4248C3.9569 12.5873 3.9697 12.7521 3.98707 12.9143C3.98799 12.9248 3.9903 12.9347 3.99205 12.9451C4.01001 13.1082 4.03253 13.2717 4.06077 13.4352C4.34774 15.1029 5.12872 16.6036 6.29899 17.7714C6.3017 17.7741 6.30452 17.7771 6.30728 17.7799C6.30824 17.781 6.30931 17.7815 6.31023 17.7825C6.62465 18.0949 6.96665 18.3839 7.33488 18.6451C8.29856 19.3292 9.37163 19.7813 10.5241 19.9896C10.8737 20.0529 11.2077 19.8185 11.2705 19.4664C11.3332 19.1141 11.1006 18.7773 10.751 18.7143Z" fill="#BDBDBD"/>
<path d="M11.5479 6.82422C11.2603 6.82422 11.0273 7.05911 11.0273 7.34843V12.5711L15.769 15.0403C15.8453 15.0801 15.927 15.0988 16.0075 15.0988C16.1958 15.0988 16.3777 14.9955 16.4702 14.8152C16.6021 14.558 16.5023 14.2419 16.2469 14.109L12.068 11.9327V7.34843C12.0679 7.05911 11.8352 6.82422 11.5479 6.82422Z" fill="#BDBDBD"/>
</svg>
