<svg width="28" height="28" viewBox="0 0 28 28" fill="none" xmlns="http://www.w3.org/2000/svg">
<path d="M13.9998 0C6.268 0 0 6.26814 0 13.9999C0 21.7314 6.268 28 13.9998 28C21.7315 28 28 21.7314 28 13.9999C28 6.26795 21.7315 0 13.9998 0ZM14.0424 20.6048V20.6046H13.9569H7.97677C7.97677 16.2313 11.8177 16.2323 12.67 15.0888L12.7676 14.5673C11.5701 13.9605 10.7247 12.4974 10.7247 10.7862C10.7247 8.53178 12.1912 6.70392 13.9998 6.70392C15.8083 6.70392 17.2748 8.53178 17.2748 10.7862C17.2748 12.4828 16.4445 13.9368 15.263 14.5532L15.374 15.1458C16.3092 16.2339 20.0223 16.3048 20.0223 20.6048H14.0424Z" fill="#019489"/>
</svg>
