<svg width="40" height="40" viewBox="0 0 40 40" fill="none" xmlns="http://www.w3.org/2000/svg">
<circle cx="20" cy="20" r="20" fill="white"/>
<path d="M30.5467 25.4964C30.2932 26.4754 29.5501 27.2471 28.6078 27.5107C26.8862 28 19.9998 28 19.9998 28C19.9998 28 13.1136 28 11.392 27.5293C10.4678 27.2659 9.70657 26.4752 9.45305 25.4964C9 23.7083 9 20 9 20C9 20 9 16.273 9.45305 14.5036C9.70684 13.5248 10.4497 12.753 11.3922 12.4894C13.1317 12 20 12 20 12C20 12 26.8862 12 28.6078 12.4707C29.5502 12.7342 30.2932 13.5059 30.547 14.4848C30.9999 16.273 30.9999 19.9812 30.9999 19.9812C30.9999 19.9812 31.018 23.7083 30.5467 25.4964ZM17.8073 16.5742V23.4258L23.5337 20L17.8073 16.5742Z" fill="#4F79FF"/>
</svg>
