<svg width="31" height="30" viewBox="0 0 31 30" fill="none" xmlns="http://www.w3.org/2000/svg">
<path fill-rule="evenodd" clip-rule="evenodd" d="M21.2598 1.36802C21.7618 1.59846 21.9406 2.20883 21.6773 2.69429L21.4337 3.14329C21.1703 3.62872 20.5646 3.80474 20.0597 3.58106C17.8448 2.59991 15.3847 2.28111 12.98 2.6754C10.2452 3.12378 7.73726 4.46889 5.85094 6.49896C3.96462 8.52902 2.80706 11.1287 2.5605 13.8888C2.31394 16.6489 2.99239 19.4127 4.48903 21.7449C5.98567 24.0771 8.2155 25.8454 10.8275 26.7713C13.4394 27.6973 16.2852 27.7283 18.9168 26.8595C21.5483 25.9907 23.8161 24.2715 25.3633 21.9724C26.7237 19.9508 27.4589 17.5819 27.4899 15.1597C27.4969 14.6075 27.9093 14.1302 28.4604 14.0931L28.9702 14.0587C29.5212 14.0216 30.0015 14.4385 30.0019 14.9908C30.0037 17.9697 29.1181 20.8902 27.4465 23.3742C25.5883 26.1354 22.8646 28.2003 19.704 29.2437C16.5434 30.2872 13.1255 30.2499 9.98845 29.1378C6.85137 28.0257 4.17326 25.902 2.37574 23.1009C0.578218 20.2998 -0.23662 16.9804 0.0595063 13.6655C0.355633 10.3505 1.74591 7.22811 4.01145 4.78993C6.27699 2.35174 9.28913 0.736215 12.5737 0.197688C15.5283 -0.286758 18.5525 0.125093 21.2598 1.36802ZM8.25839 14.7857L14.375 20.6237C14.3757 20.6244 14.377 20.6244 14.3777 20.6237L16.3405 18.7503L27.3689 8.22308C27.7816 7.82912 27.7816 7.17027 27.3689 6.77634L26.853 6.284C26.4666 5.91519 25.8586 5.91519 25.4722 6.284L14.3764 16.8743C14.3775 16.8733 14.3775 16.8715 14.3764 16.8704L10.155 12.8459C9.76857 12.4775 9.16082 12.4776 8.77457 12.8463L8.25839 13.339C7.84564 13.7329 7.84564 14.3918 8.25839 14.7857Z" fill="white"/>
</svg>
