<svg width="24" height="24" viewBox="0 0 24 24" fill="none" xmlns="http://www.w3.org/2000/svg">
<path d="M5.77126 19C5.55577 18.9996 5.35034 18.9087 5.20509 18.7495C5.05717 18.5916 4.98367 18.378 5.00306 18.1624L5.19127 16.0923L13.8858 7.39845L16.603 10.1156L7.91072 18.8087L5.84117 18.9969C5.81735 18.9992 5.79354 19 5.77126 19ZM17.1453 9.5723L14.429 6.85518L16.0583 5.22537C16.2024 5.08108 16.3979 5 16.6018 5C16.8057 5 17.0012 5.08108 17.1453 5.22537L18.7747 6.85518C18.9189 6.99931 19 7.19489 19 7.39883C19 7.60278 18.9189 7.79836 18.7747 7.94249L17.1461 9.57153L17.1453 9.5723Z" fill="#019489"/>
</svg>
