<svg width="16" height="16" viewBox="0 0 16 16" fill="none" xmlns="http://www.w3.org/2000/svg">
<path fill-rule="evenodd" clip-rule="evenodd" d="M11.2136 0.673842C11.5523 0.822388 11.6719 1.23163 11.4956 1.55666C11.3192 1.88169 10.9138 1.99881 10.5727 1.85598C9.42436 1.37513 8.15957 1.22399 6.92222 1.42688C5.46378 1.66602 4.12629 2.38341 3.12031 3.46611C2.11433 4.54881 1.49701 5.93534 1.36552 7.40739C1.23403 8.87945 1.59584 10.3534 2.394 11.5973C3.19216 12.8411 4.38133 13.7842 5.7743 14.2781C7.16727 14.7719 8.68492 14.7884 10.0883 14.3251C11.4917 13.8617 12.7012 12.9448 13.5263 11.7186C14.2263 10.6784 14.6159 9.46563 14.6572 8.22136C14.6695 7.85179 14.9449 7.53202 15.3139 7.50716C15.6828 7.4823 16.005 7.76156 15.9989 8.13129C15.9737 9.67271 15.5032 11.1793 14.6372 12.4662C13.6463 13.9389 12.1937 15.0402 10.5081 15.5967C8.82261 16.1532 6.99986 16.1333 5.32685 15.5402C3.65384 14.9471 2.2256 13.8144 1.26698 12.3205C0.308364 10.8266 -0.12619 9.05625 0.0317348 7.28825C0.189659 5.52026 0.931093 3.855 2.13931 2.55463C3.34753 1.25426 4.9539 0.392648 6.70554 0.105434C8.23623 -0.145551 9.80186 0.0545467 11.2136 0.673842ZM4.54826 8.02324L7.66618 10.9993C7.6666 10.9997 7.66725 10.9997 7.66766 10.9993L8.7144 10.0002L14.4519 4.52302C14.7504 4.23809 14.7504 3.76159 14.4519 3.47668C14.1724 3.20991 13.7326 3.20991 13.4531 3.47668L7.66692 8.99966C7.66753 8.99908 7.66753 8.99811 7.66692 8.99754L5.54698 6.97633C5.26739 6.70976 4.8277 6.70989 4.54826 6.97661C4.24969 7.2616 4.24969 7.73824 4.54826 8.02324Z" fill="#F2F2F2"/>
</svg>
