<svg width="93" height="94" viewBox="0 0 93 94" fill="none" xmlns="http://www.w3.org/2000/svg">
<g clip-path="url(#clip0)">
<path d="M79.3408 37.6992H84.1208C84.3608 37.6992 84.5553 40.3294 84.5553 43.5741V83.2299C84.5553 86.4746 84.3608 89.1048 84.1208 89.1048H79.3408C79.1008 89.1048 78.9062 86.4746 78.9062 83.2299V43.5741C78.9062 40.3294 79.1008 37.6992 79.3408 37.6992Z" fill="#99C8C4"/>
<path d="M12.4812 37.6992H76.0312C79.4555 37.6992 82.2312 40.4749 82.2312 43.8991V85.7488C82.2312 89.173 79.4555 91.9487 76.0312 91.9487H12.4812C9.05695 91.9487 6.28125 89.173 6.28125 85.7488V43.8991C6.28125 40.4749 9.05695 37.6992 12.4812 37.6992Z" fill="#EEF2FF"/>
<path d="M82.2312 43.8991V50.099H6.28125V43.8991C6.28125 40.4749 9.05695 37.6992 12.4812 37.6992H76.0312C79.4555 37.6992 82.2312 40.4749 82.2312 43.8991Z" fill="#EEF2FF"/>
<path d="M71.3812 33.0492V37.6995H21.7812V33.0492C21.7862 31.3392 23.1712 29.9542 24.8812 29.9492H68.2812C69.9912 29.9542 71.3762 31.3392 71.3812 33.0492Z" fill="#99C8C4"/>
<path d="M66.7309 33.0492V37.6995H21.7812V33.0492C21.7862 31.3392 23.1712 29.9542 24.8812 29.9492H63.631C65.3409 29.9542 66.726 31.3392 66.7309 33.0492Z" fill="#EEF2FF"/>
<path d="M52.7796 7.67578C61.0982 10.3628 66.734 18.1081 66.7298 26.8495V29.9495H26.4297V26.8495C26.4261 18.1081 32.0613 10.3628 40.3798 7.67578H52.7796Z" fill="#EEF2FF"/>
<path d="M34.1801 22.1998H26.9727C27.8241 18.5933 29.659 15.294 32.2736 12.668L34.1801 22.1998Z" fill="#A4C2F7"/>
<path d="M66.1886 22.1998H58.9805L60.887 12.668C63.5016 15.294 65.3372 18.5933 66.1886 22.1998Z" fill="#99C8C4"/>
<path d="M26.4308 29.9504H24.8812C23.1712 29.9553 21.7862 31.3403 21.7812 33.0503V37.7006H26.4308V33.0503C26.4358 31.3403 27.8208 29.9553 29.5308 29.9504H31.0811V26.8504C31.0818 25.2845 31.2656 23.7242 31.6282 22.2001C31.6282 22.1788 31.6402 22.1568 31.6466 22.1356C31.709 21.8716 31.7864 21.6148 31.8588 21.36C31.9226 21.1372 31.9829 20.9109 32.0546 20.6909C32.1348 20.4398 32.2249 20.1928 32.315 19.9466C32.3973 19.7238 32.4789 19.5003 32.5676 19.2804C32.6556 19.0604 32.7655 18.8149 32.8776 18.5794C32.989 18.3438 33.082 18.1366 33.1877 17.9195C33.2927 17.7024 33.4091 17.476 33.5269 17.2575C33.6447 17.039 33.7688 16.8297 33.8944 16.6175C34.02 16.4046 34.1456 16.1911 34.279 15.9832C34.4117 15.776 34.5408 15.5944 34.6756 15.4021C34.8104 15.2098 34.9665 14.9728 35.1219 14.7663C35.2149 14.6429 35.3156 14.5265 35.4114 14.4038C37.8784 11.2556 41.2274 8.9141 45.0312 7.67667V3.6004C45.0312 2.74471 45.7252 2.05078 46.5809 2.05078H41.9313C41.0749 2.05078 40.381 2.74471 40.381 3.6004V7.67667C36.575 8.91126 33.2225 11.2513 30.7526 14.3995C30.6561 14.5215 30.5553 14.6379 30.4624 14.7621C30.3077 14.9678 30.1637 15.1835 30.0161 15.3978C29.8692 15.6114 29.7465 15.7817 29.6195 15.9789C29.4925 16.1755 29.3605 16.4004 29.2349 16.6125C29.1093 16.8254 28.9851 17.0376 28.8674 17.2525C28.7496 17.4682 28.6382 17.6917 28.5282 17.9145C28.4182 18.138 28.3161 18.3516 28.2181 18.5751C28.1202 18.7979 28.0117 19.0399 27.9081 19.2754C27.8045 19.511 27.7378 19.7189 27.6555 19.9424C27.5654 20.1886 27.476 20.4348 27.3951 20.686C27.3241 20.9059 27.2631 21.1323 27.2 21.3558C27.1269 21.6148 27.0446 21.8716 26.9871 22.1306C26.9871 22.1526 26.9736 22.1739 26.9687 22.1959C26.6089 23.7214 26.4287 25.283 26.4308 26.8504V29.9504Z" fill="white"/>
<path d="M6.28125 43.8991V85.7488C6.28125 89.173 9.05695 91.9487 12.4812 91.9487H17.1314C13.7072 91.9487 10.9315 89.173 10.9315 85.7488V43.8991C10.9315 40.4749 13.7072 37.6992 17.1314 37.6992H12.4812C9.05695 37.6992 6.28125 40.4749 6.28125 43.8991Z" fill="white"/>
<path d="M4.73047 85.7482V43.8984H7.83042V85.7482H4.73047Z" fill="white"/>
<path d="M4.73047 83.9164C4.73533 88.1029 8.12756 91.4951 12.3133 91.5H79.047C83.2328 91.4951 86.6251 88.1029 86.6306 83.9164V42.9667C86.6251 38.7809 83.2328 35.388 79.047 35.3831H71.4635V32.3499C71.4635 29.8373 69.4265 27.8003 66.9139 27.8003V26.2833C66.9347 17.4792 61.4972 9.5832 53.2638 6.46382V3.53329C53.2638 1.858 51.9058 0.5 50.2305 0.5H41.1306C39.4553 0.5 38.0973 1.858 38.0973 3.53329V6.46382C29.8639 9.5832 24.4257 17.4792 24.4472 26.2833V27.8003C21.9339 27.8003 19.8969 29.8373 19.8969 32.3499V35.3831H12.3133C8.12756 35.388 4.73533 38.7809 4.73047 42.9667V65.7167C4.73047 66.554 5.40947 67.233 6.24677 67.233C7.08475 67.233 7.76376 66.554 7.76376 65.7167V50.5503H83.5973V83.9164C83.5973 86.4297 81.5596 88.4667 79.047 88.4667H12.3133C9.80076 88.4667 7.76376 86.4297 7.76376 83.9164V77.8499C7.76376 77.0126 7.08475 76.3336 6.24677 76.3336C5.40947 76.3336 4.73047 77.0126 4.73047 77.8499V83.9164ZM60.3919 15.5317C61.4326 16.9654 62.2574 18.5435 62.8399 20.2167H59.6046L60.3919 15.5317ZM41.1306 3.53329H50.2305V20.2167C50.2305 21.054 49.5515 21.733 48.7135 21.733H42.6469C41.8096 21.733 41.1306 21.054 41.1306 20.2167V3.53329ZM31.7558 20.2167H28.5205C29.1051 18.5435 29.9326 16.9647 30.9761 15.5317L31.7558 20.2167ZM27.4805 26.2833C27.4812 25.2669 27.5666 24.2525 27.7353 23.25H33.547C33.9928 23.25 34.4163 23.0535 34.7044 22.7133C34.9925 22.3724 35.1161 21.9225 35.0425 21.4831L33.5755 12.6866C34.928 11.4876 36.4519 10.4989 38.0973 9.75191V20.2167C38.0973 22.7293 40.1343 24.767 42.6469 24.767H48.7135C51.2268 24.767 53.2638 22.7293 53.2638 20.2167V9.75191C54.9085 10.4983 56.4324 11.4869 57.7849 12.6852L56.3179 21.4817C56.2443 21.9219 56.3679 22.3717 56.656 22.7126C56.9441 23.0535 57.3676 23.25 57.8133 23.25H63.6258C63.7938 24.2525 63.8792 25.2669 63.8806 26.2833V27.8003H27.4805V26.2833ZM22.9302 32.3499C22.9302 31.5126 23.6092 30.8336 24.4472 30.8336H66.9139C67.7512 30.8336 68.4302 31.5126 68.4302 32.3499V35.3831H22.9302V32.3499ZM7.76376 47.517V42.9667C7.76376 40.4534 9.80076 38.4164 12.3133 38.4164H79.047C81.5596 38.4164 83.5973 40.4534 83.5973 42.9667V47.517H7.76376Z" fill="#019489"/>
<path d="M5.67169 73.1775C5.75778 73.2212 5.85012 73.2517 5.94454 73.2684C6.04521 73.2851 6.14657 73.2955 6.24794 73.299C6.64992 73.2927 7.03386 73.1358 7.32476 72.8588C7.46222 72.7137 7.57053 72.5443 7.64343 72.3582C7.87254 71.7924 7.74757 71.1453 7.32476 70.7051C7.17965 70.5684 7.01025 70.4601 6.82418 70.3865C6.64228 70.3087 6.4465 70.2677 6.24794 70.2657C5.63211 70.2615 5.07461 70.6315 4.83856 71.2002C4.6025 71.7695 4.73372 72.4249 5.17112 72.8588L5.39884 73.0407C5.48354 73.0983 5.57518 73.1441 5.67169 73.1775Z" fill="#019489"/>
<path d="M15.225 42.3886C15.1945 42.2955 15.1487 42.2081 15.0883 42.1303C15.0279 42.0393 14.9668 41.9637 14.9064 41.888L14.6786 41.7061C14.5946 41.6485 14.5023 41.6027 14.4058 41.5693C14.3197 41.5256 14.228 41.495 14.1329 41.4784C13.6858 41.3833 13.22 41.4957 12.8659 41.7852C12.5125 42.0741 12.3091 42.508 12.3125 42.9648C12.3153 43.1627 12.3563 43.3585 12.434 43.5411C12.5111 43.725 12.6187 43.8938 12.7527 44.0416C13.0436 44.3187 13.4282 44.4756 13.8295 44.4811C13.9309 44.479 14.033 44.4686 14.1329 44.4513C14.228 44.4346 14.3197 44.4041 14.4058 44.3603C14.5023 44.327 14.5946 44.2812 14.6786 44.2235L14.9064 44.0416C15.0403 43.8938 15.148 43.725 15.225 43.5411C15.3097 43.3612 15.3514 43.1641 15.3465 42.9648C15.3437 42.8628 15.3333 42.7614 15.316 42.6614C15.2993 42.5663 15.2688 42.4747 15.225 42.3886Z" fill="#019489"/>
<path d="M21.2908 42.3886C21.2602 42.2955 21.2144 42.2081 21.154 42.1303C21.0936 42.0393 21.0332 41.9637 20.9721 41.888L20.7444 41.7061C20.6604 41.6485 20.568 41.6027 20.4715 41.5693C20.3854 41.5256 20.2938 41.495 20.1987 41.4784C19.7515 41.3833 19.2857 41.4957 18.9323 41.7852C18.5782 42.0741 18.3748 42.508 18.379 42.9648C18.3811 43.1627 18.422 43.3585 18.4998 43.5411C18.5768 43.725 18.6844 43.8938 18.8184 44.0416C19.1093 44.3187 19.494 44.4756 19.8953 44.4811C19.9973 44.479 20.0987 44.4686 20.1987 44.4513C20.2938 44.4346 20.3854 44.4041 20.4715 44.3603C20.568 44.327 20.6604 44.2812 20.7444 44.2235L20.9721 44.0416C21.1061 43.8938 21.2137 43.725 21.2908 43.5411C21.3755 43.3612 21.4171 43.1641 21.4123 42.9648C21.4095 42.8628 21.3991 42.7614 21.3817 42.6614C21.365 42.5663 21.3345 42.4747 21.2908 42.3886Z" fill="#019489"/>
<path d="M27.3611 42.3886C27.3312 42.2955 27.2847 42.2081 27.2243 42.1303C27.1639 42.0393 27.1035 41.9637 27.0424 41.888L26.8154 41.7061C26.7307 41.6485 26.639 41.6027 26.5418 41.5693C26.4564 41.5256 26.3641 41.495 26.269 41.4784C25.8226 41.3833 25.356 41.4957 25.0026 41.7852C24.6485 42.0741 24.4451 42.508 24.4493 42.9648C24.4514 43.1627 24.493 43.3585 24.5701 43.5411C24.6471 43.725 24.7548 43.8938 24.8888 44.0416C25.1797 44.3187 25.5643 44.4756 25.9656 44.4811C26.0676 44.479 26.169 44.4686 26.269 44.4513C26.3641 44.4346 26.4564 44.4041 26.5418 44.3603C26.639 44.327 26.7307 44.2812 26.8154 44.2235L27.0424 44.0416C27.1764 43.8938 27.284 43.725 27.3611 43.5411C27.4458 43.3612 27.4874 43.1641 27.4826 42.9648C27.4798 42.8628 27.4694 42.7614 27.452 42.6614C27.4354 42.5663 27.4048 42.4747 27.3611 42.3886Z" fill="#019489"/>
<path d="M33.3236 57.412C33.6436 56.951 33.6825 56.3505 33.4249 55.852C33.1673 55.3528 32.655 55.0376 32.0933 55.0313C31.5323 55.0251 31.013 55.3299 30.745 55.8228L18.6119 75.5395C18.3244 76.0068 18.3112 76.5927 18.5778 77.0718C18.8444 77.5508 19.3492 77.8487 19.8977 77.8508H28.9975V80.8841C28.9975 81.722 29.6765 82.401 30.5145 82.401C31.3518 82.401 32.0308 81.722 32.0308 80.8841V77.8508H33.5478C34.3851 77.8508 35.0641 77.1718 35.0641 76.3345C35.0641 75.4965 34.3851 74.8175 33.5478 74.8175H32.0308V71.7842C32.0308 70.9469 31.3518 70.2679 30.5145 70.2679C29.6765 70.2679 28.9975 70.9469 28.9975 71.7842V74.8175H22.6123L33.3236 57.412Z" fill="#F67F61"/>
<path d="M71.2411 57.4093C71.6265 56.7019 71.3904 55.8167 70.7045 55.3939C70.0192 54.971 69.1222 55.1578 68.6626 55.8201L56.5295 75.5369C56.242 76.0041 56.2295 76.5901 56.4961 77.0691C56.7627 77.5482 57.2675 77.846 57.8153 77.8481H66.9158V80.8814C66.9158 81.7194 67.5948 82.3984 68.4321 82.3984C69.2701 82.3984 69.9491 81.7194 69.9491 80.8814V77.8481H71.4654C72.3034 77.8481 72.9824 77.1691 72.9824 76.3318C72.9824 75.4938 72.3034 74.8148 71.4654 74.8148H69.9491V71.7815C69.9491 70.9442 69.2701 70.2652 68.4321 70.2652C67.5948 70.2652 66.9158 70.9442 66.9158 71.7815V74.8148H60.5306L71.2411 57.4093Z" fill="#F67F61"/>
<path d="M48.7138 82.4018C51.2271 82.4018 53.2641 80.3648 53.2641 77.8516V59.6518C53.2641 57.1386 51.2271 55.1016 48.7138 55.1016H42.6472C40.1347 55.1016 38.0977 57.1386 38.0977 59.6518V77.8516C38.0977 80.3648 40.1347 82.4018 42.6472 82.4018H48.7138ZM41.1309 77.8516V59.6518C41.1309 58.8139 41.8099 58.1348 42.6472 58.1348H48.7138C49.5518 58.1348 50.2308 58.8139 50.2308 59.6518V77.8516C50.2308 78.6896 49.5518 79.3686 48.7138 79.3686H42.6472C41.8099 79.3686 41.1309 78.6896 41.1309 77.8516Z" fill="#F67F61"/>
</g>
<defs>
<clipPath id="clip0">
<rect width="93" height="93" fill="white" transform="translate(0 0.5)"/>
</clipPath>
</defs>
</svg>
