<svg width="234" height="36" viewBox="0 0 234 36" fill="none" xmlns="http://www.w3.org/2000/svg">
<path opacity="0.7" d="M6.32678 26.3672V22.9219C6.32678 20.7508 8.09317 18.9844 10.2643 18.9844C12.4354 18.9844 14.2018 20.7508 14.2018 22.9219V30.1551C14.2018 33.378 16.8238 36 20.0467 36C23.2696 36 25.8917 33.378 25.8917 30.1551V29.3939L29.1177 21.7796L27.1754 20.9568L24.837 26.4761L22.4986 20.9568L20.5563 21.7796L23.7823 29.3939V30.1551C23.7823 32.2149 22.1065 33.8906 20.0467 33.8906C17.9869 33.8906 16.3112 32.2149 16.3112 30.1551V22.9219C16.3112 19.5877 13.5985 16.875 10.2643 16.875C6.93006 16.875 4.21741 19.5877 4.21741 22.9219V26.3672H6.32678Z" fill="white"/>
<path d="M30.8206 1.40625H31.4264C32.8736 1.40625 34.2036 2.06895 35.0751 3.22432C35.9466 4.3797 36.2184 5.84051 35.8208 7.23213L33.0215 17.0296C32.5092 18.8226 31.4516 20.3638 29.9629 21.4867C28.4743 22.6096 26.7019 23.2032 24.8372 23.2032C22.9725 23.2032 21.2 22.6097 19.7113 21.4867C18.2227 20.3638 17.165 18.8226 16.6527 17.0296L13.8534 7.23213C13.4558 5.84058 13.7276 4.37984 14.5992 3.22439C15.4707 2.06895 16.8006 1.40625 18.2478 1.40625H18.866V3.51562H18.2478C17.4686 3.51562 16.7524 3.87246 16.2832 4.49459C15.8139 5.11671 15.6675 5.9033 15.8816 6.65262L18.6809 16.4501C19.4621 19.1842 21.9936 21.0938 24.8371 21.0938C27.6806 21.0938 30.2121 19.1842 30.9933 16.4502L33.7926 6.65269C34.0067 5.90337 33.8603 5.11678 33.391 4.49466C32.9218 3.87246 32.2056 3.51562 31.4263 3.51562H30.8205L30.8206 1.40625Z" fill="white"/>
<path opacity="0.7" d="M19.9149 4.92188C19.3324 4.92188 18.8602 4.44966 18.8602 3.86719V1.05469C18.8602 0.472219 19.3324 0 19.9149 0C20.4974 0 20.9696 0.472219 20.9696 1.05469V3.86719C20.9696 4.44966 20.4974 4.92188 19.9149 4.92188Z" fill="white"/>
<path opacity="0.7" d="M29.7587 4.92188C29.1762 4.92188 28.704 4.44966 28.704 3.86719V1.05469C28.704 0.472219 29.1762 0 29.7587 0C30.3411 0 30.8134 0.472219 30.8134 1.05469V3.86719C30.8134 4.44966 30.3411 4.92188 29.7587 4.92188Z" fill="white"/>
<path opacity="0.1" d="M5.27344 34.8047C7.60339 34.8047 9.49219 32.9159 9.49219 30.5859C9.49219 28.256 7.60339 26.3672 5.27344 26.3672C2.94349 26.3672 1.05469 28.256 1.05469 30.5859C1.05469 32.9159 2.94349 34.8047 5.27344 34.8047Z" fill="#4F79FF"/>
<path d="M5.27344 35.8594C2.36566 35.8594 0 33.4937 0 30.5859C0 27.6782 2.36566 25.3125 5.27344 25.3125C8.18121 25.3125 10.5469 27.6782 10.5469 30.5859C10.5469 33.4937 8.18121 35.8594 5.27344 35.8594ZM5.27344 27.4219C3.52877 27.4219 2.10938 28.8413 2.10938 30.5859C2.10938 32.3306 3.52877 33.75 5.27344 33.75C7.0181 33.75 8.4375 32.3306 8.4375 30.5859C8.4375 28.8413 7.0181 27.4219 5.27344 27.4219Z" fill="white"/>
<path opacity="0.5" d="M5.27344 31.6406C5.85593 31.6406 6.32812 31.1684 6.32812 30.5859C6.32812 30.0034 5.85593 29.5312 5.27344 29.5312C4.69095 29.5312 4.21875 30.0034 4.21875 30.5859C4.21875 31.1684 4.69095 31.6406 5.27344 31.6406Z" fill="#F2F2F2"/>
<path d="M56.32 21.888H57.92C58.3147 21.2053 58.624 20.528 58.848 19.856C59.072 19.184 59.2373 18.5013 59.344 17.808C59.4613 17.1147 59.5307 16.4 59.552 15.664C59.584 14.928 59.6 14.1547 59.6 13.344V12.912H66.928V21.888H68.832V26.96H66.432V24H58.72V26.96H56.32V21.888ZM61.952 15.024C61.9307 15.6 61.8933 16.192 61.84 16.8C61.7867 17.408 61.7067 18.0107 61.6 18.608C61.4933 19.1947 61.3493 19.7707 61.168 20.336C60.9973 20.8907 60.7787 21.408 60.512 21.888H64.496V15.024H61.952ZM75.5186 15.024C75.4866 15.7387 75.444 16.4587 75.3906 17.184C75.348 17.8987 75.2626 18.592 75.1346 19.264C75.0173 19.936 74.8413 20.5653 74.6066 21.152C74.3826 21.7387 74.068 22.256 73.6626 22.704C73.268 23.152 72.772 23.5093 72.1746 23.776C71.5773 24.0427 70.8466 24.192 69.9826 24.224L69.7106 22.048C70.4786 21.9627 71.0706 21.7707 71.4866 21.472C71.9026 21.1627 72.2173 20.6933 72.4306 20.064C72.6973 19.2853 72.884 18.2827 72.9906 17.056C73.108 15.8187 73.1666 14.4373 73.1666 12.912H80.7346V24H78.2386V15.024H75.5186ZM88.2876 14.944C87.9676 14.944 87.6583 14.9707 87.3596 15.024C87.0716 15.0667 86.8156 15.1467 86.5916 15.264C86.3676 15.3707 86.1863 15.5253 86.0476 15.728C85.909 15.92 85.8396 16.1653 85.8396 16.464C85.8396 17.0293 86.037 17.4187 86.4316 17.632C86.837 17.8453 87.4343 17.952 88.2236 17.952H89.2636V14.96C89.1356 14.9493 88.997 14.944 88.8476 14.944C88.6983 14.944 88.5116 14.944 88.2876 14.944ZM88.3996 12.8C88.8476 12.8 89.3703 12.8267 89.9676 12.88C90.5756 12.9333 91.173 13.024 91.7596 13.152V24H89.2636V20.016H88.4956C88.357 20.016 88.2236 20.016 88.0956 20.016C87.9676 20.016 87.813 20.0053 87.6316 19.984C87.2796 20.464 86.8903 21.0667 86.4636 21.792C86.0476 22.5067 85.6583 23.2427 85.2956 24H82.6556C82.8476 23.5627 83.0503 23.1307 83.2636 22.704C83.4876 22.2773 83.7116 21.872 83.9356 21.488C84.1596 21.104 84.3783 20.752 84.5916 20.432C84.805 20.1013 85.0023 19.8133 85.1836 19.568C84.949 19.4613 84.7143 19.3227 84.4796 19.152C84.2556 18.9707 84.053 18.7573 83.8716 18.512C83.6903 18.2667 83.541 17.9787 83.4236 17.648C83.317 17.3067 83.2636 16.9173 83.2636 16.48C83.2636 15.872 83.381 15.3387 83.6156 14.88C83.861 14.4213 84.2023 14.0373 84.6396 13.728C85.0876 13.4187 85.6263 13.1893 86.2556 13.04C86.8956 12.88 87.6103 12.8 88.3996 12.8ZM103.227 24.224C101.424 24.224 100.048 23.7227 99.0986 22.72C98.16 21.7173 97.6906 20.2933 97.6906 18.448C97.6906 17.5307 97.8346 16.7147 98.1226 16C98.4106 15.2747 98.8053 14.6667 99.3066 14.176C99.808 13.6747 100.405 13.296 101.099 13.04C101.792 12.784 102.544 12.656 103.355 12.656C103.824 12.656 104.251 12.6933 104.635 12.768C105.019 12.832 105.355 12.912 105.643 13.008C105.931 13.0933 106.171 13.184 106.363 13.28C106.555 13.376 106.693 13.4507 106.779 13.504L106.059 15.52C105.717 15.3387 105.317 15.184 104.859 15.056C104.411 14.928 103.899 14.864 103.323 14.864C102.939 14.864 102.56 14.928 102.187 15.056C101.824 15.184 101.499 15.392 101.211 15.68C100.933 15.9573 100.709 16.32 100.539 16.768C100.368 17.216 100.283 17.76 100.283 18.4C100.283 18.912 100.336 19.392 100.443 19.84C100.56 20.2773 100.741 20.656 100.987 20.976C101.243 21.296 101.573 21.552 101.979 21.744C102.384 21.9253 102.875 22.016 103.451 22.016C103.813 22.016 104.139 21.9947 104.427 21.952C104.715 21.9093 104.971 21.8613 105.195 21.808C105.419 21.744 105.616 21.6747 105.787 21.6C105.957 21.5253 106.112 21.456 106.251 21.392L106.939 23.392C106.587 23.6053 106.091 23.7973 105.451 23.968C104.811 24.1387 104.069 24.224 103.227 24.224ZM117.666 12.912V24H115.17V15.024H111.042V24H108.546V12.912H117.666ZM120.233 24V12.912H127.721V15.008H122.729V17.184H127.161V19.232H122.729V21.904H128.089V24H120.233ZM139.056 21.888H140.976V26.96H138.576V24H129.936V12.912H132.432V21.888H136.56V12.912H139.056V21.888ZM142.577 24V12.912H145.057V19.456C145.441 18.88 145.852 18.2827 146.289 17.664C146.726 17.0347 147.164 16.432 147.601 15.856C148.049 15.2693 148.486 14.72 148.913 14.208C149.34 13.696 149.729 13.264 150.081 12.912H152.113V24H149.649V16.736C148.71 17.8347 147.825 19.0027 146.993 20.24C146.161 21.4773 145.388 22.7307 144.673 24H142.577ZM162.095 24C161.977 23.616 161.844 23.2213 161.695 22.816C161.556 22.4107 161.417 22.0053 161.279 21.6H156.959C156.82 22.0053 156.676 22.4107 156.527 22.816C156.388 23.2213 156.26 23.616 156.143 24H153.551C153.967 22.8053 154.361 21.7013 154.735 20.688C155.108 19.6747 155.471 18.72 155.823 17.824C156.185 16.928 156.537 16.08 156.879 15.28C157.231 14.4693 157.593 13.68 157.967 12.912H160.351C160.713 13.68 161.071 14.4693 161.423 15.28C161.775 16.08 162.127 16.928 162.479 17.824C162.841 18.72 163.209 19.6747 163.583 20.688C163.956 21.7013 164.351 22.8053 164.767 24H162.095ZM159.103 15.424C159.049 15.584 158.969 15.8027 158.863 16.08C158.756 16.3573 158.633 16.6773 158.495 17.04C158.356 17.4027 158.201 17.8027 158.031 18.24C157.871 18.6773 157.705 19.136 157.535 19.616H160.687C160.516 19.136 160.351 18.6773 160.191 18.24C160.031 17.8027 159.876 17.4027 159.727 17.04C159.588 16.6773 159.465 16.3573 159.359 16.08C159.252 15.8027 159.167 15.584 159.103 15.424ZM171.253 15.024C171.221 15.7387 171.178 16.4587 171.125 17.184C171.082 17.8987 170.997 18.592 170.869 19.264C170.752 19.936 170.576 20.5653 170.341 21.152C170.117 21.7387 169.802 22.256 169.397 22.704C169.002 23.152 168.506 23.5093 167.909 23.776C167.312 24.0427 166.581 24.192 165.717 24.224L165.445 22.048C166.213 21.9627 166.805 21.7707 167.221 21.472C167.637 21.1627 167.952 20.6933 168.165 20.064C168.432 19.2853 168.618 18.2827 168.725 17.056C168.842 15.8187 168.901 14.4373 168.901 12.912H176.469V24H173.973V15.024H171.253ZM179.03 24V12.912H181.51V19.456C181.894 18.88 182.305 18.2827 182.742 17.664C183.179 17.0347 183.617 16.432 184.054 15.856C184.502 15.2693 184.939 14.72 185.366 14.208C185.793 13.696 186.182 13.264 186.534 12.912H188.566V24H186.102V16.736C185.163 17.8347 184.278 19.0027 183.446 20.24C182.614 21.4773 181.841 22.7307 181.126 24H179.03ZM196.18 24.224C194.377 24.224 193.001 23.7227 192.052 22.72C191.113 21.7173 190.644 20.2933 190.644 18.448C190.644 17.5307 190.788 16.7147 191.076 16C191.364 15.2747 191.758 14.6667 192.26 14.176C192.761 13.6747 193.358 13.296 194.052 13.04C194.745 12.784 195.497 12.656 196.308 12.656C196.777 12.656 197.204 12.6933 197.588 12.768C197.972 12.832 198.308 12.912 198.596 13.008C198.884 13.0933 199.124 13.184 199.316 13.28C199.508 13.376 199.646 13.4507 199.732 13.504L199.012 15.52C198.67 15.3387 198.27 15.184 197.812 15.056C197.364 14.928 196.852 14.864 196.276 14.864C195.892 14.864 195.513 14.928 195.14 15.056C194.777 15.184 194.452 15.392 194.164 15.68C193.886 15.9573 193.662 16.32 193.492 16.768C193.321 17.216 193.236 17.76 193.236 18.4C193.236 18.912 193.289 19.392 193.396 19.84C193.513 20.2773 193.694 20.656 193.94 20.976C194.196 21.296 194.526 21.552 194.932 21.744C195.337 21.9253 195.828 22.016 196.404 22.016C196.766 22.016 197.092 21.9947 197.38 21.952C197.668 21.9093 197.924 21.8613 198.148 21.808C198.372 21.744 198.569 21.6747 198.74 21.6C198.91 21.5253 199.065 21.456 199.204 21.392L199.892 23.392C199.54 23.6053 199.044 23.7973 198.404 23.968C197.764 24.1387 197.022 24.224 196.18 24.224ZM210.067 12.912V15.04H206.723V24H204.227V15.04H200.883V12.912H210.067ZM213.392 18.448C213.392 18.992 213.456 19.4827 213.584 19.92C213.722 20.3573 213.914 20.736 214.16 21.056C214.416 21.3653 214.725 21.6053 215.088 21.776C215.45 21.9467 215.866 22.032 216.336 22.032C216.794 22.032 217.205 21.9467 217.568 21.776C217.941 21.6053 218.25 21.3653 218.496 21.056C218.752 20.736 218.944 20.3573 219.072 19.92C219.21 19.4827 219.28 18.992 219.28 18.448C219.28 17.904 219.21 17.4133 219.072 16.976C218.944 16.528 218.752 16.1493 218.496 15.84C218.25 15.52 217.941 15.2747 217.568 15.104C217.205 14.9333 216.794 14.848 216.336 14.848C215.866 14.848 215.45 14.9387 215.088 15.12C214.725 15.2907 214.416 15.536 214.16 15.856C213.914 16.1653 213.722 16.544 213.584 16.992C213.456 17.4293 213.392 17.9147 213.392 18.448ZM221.856 18.448C221.856 19.3973 221.712 20.2347 221.424 20.96C221.146 21.6747 220.762 22.2773 220.272 22.768C219.781 23.248 219.194 23.6107 218.512 23.856C217.84 24.1013 217.114 24.224 216.336 24.224C215.578 24.224 214.864 24.1013 214.192 23.856C213.52 23.6107 212.933 23.248 212.432 22.768C211.93 22.2773 211.536 21.6747 211.248 20.96C210.96 20.2347 210.816 19.3973 210.816 18.448C210.816 17.4987 210.965 16.6667 211.264 15.952C211.562 15.2267 211.962 14.6187 212.464 14.128C212.976 13.6373 213.562 13.2693 214.224 13.024C214.896 12.7787 215.6 12.656 216.336 12.656C217.093 12.656 217.808 12.7787 218.48 13.024C219.152 13.2693 219.738 13.6373 220.24 14.128C220.741 14.6187 221.136 15.2267 221.424 15.952C221.712 16.6667 221.856 17.4987 221.856 18.448ZM227.632 24.144C227.024 24.144 226.416 24.1227 225.808 24.08C225.211 24.048 224.587 23.9627 223.936 23.824V13.072C224.448 12.976 225.008 12.9067 225.616 12.864C226.224 12.8107 226.79 12.784 227.312 12.784C228.016 12.784 228.662 12.8373 229.248 12.944C229.846 13.04 230.358 13.2107 230.784 13.456C231.211 13.7013 231.542 14.0267 231.776 14.432C232.022 14.8267 232.144 15.3173 232.144 15.904C232.144 16.7893 231.718 17.488 230.864 18C231.568 18.2667 232.048 18.6293 232.304 19.088C232.56 19.5467 232.688 20.064 232.688 20.64C232.688 21.8027 232.262 22.6773 231.408 23.264C230.566 23.8507 229.307 24.144 227.632 24.144ZM226.368 19.168V22.032C226.55 22.0533 226.747 22.0693 226.96 22.08C227.174 22.0907 227.408 22.096 227.664 22.096C228.411 22.096 229.014 21.9893 229.472 21.776C229.931 21.5627 230.16 21.168 230.16 20.592C230.16 20.08 229.968 19.7173 229.584 19.504C229.2 19.28 228.651 19.168 227.936 19.168H226.368ZM226.368 17.264H227.584C228.352 17.264 228.902 17.168 229.232 16.976C229.563 16.7733 229.728 16.4533 229.728 16.016C229.728 15.568 229.558 15.2533 229.216 15.072C228.875 14.8907 228.374 14.8 227.712 14.8C227.499 14.8 227.27 14.8053 227.024 14.816C226.779 14.816 226.56 14.8267 226.368 14.848V17.264Z" fill="white"/>
</svg>
