<svg width="244" height="36" viewBox="0 0 244 36" fill="none" xmlns="http://www.w3.org/2000/svg">
<g clip-path="url(#clip0)">
<path opacity="0.7" d="M11.3281 26.3672V22.9219C11.3281 20.7508 13.0945 18.9844 15.2656 18.9844C17.4367 18.9844 19.2031 20.7508 19.2031 22.9219V30.1551C19.2031 33.378 21.8251 36 25.0481 36C28.271 36 30.893 33.378 30.893 30.1551V29.3939L34.119 21.7796L32.1768 20.9568L29.8383 26.4761L27.4999 20.9568L25.5577 21.7796L28.7836 29.3939V30.1551C28.7836 32.2149 27.1079 33.8906 25.0481 33.8906C22.9883 33.8906 21.3125 32.2149 21.3125 30.1551V22.9219C21.3125 19.5877 18.5998 16.875 15.2656 16.875C11.9314 16.875 9.21875 19.5877 9.21875 22.9219V26.3672H11.3281Z" fill="#4F79FF"/>
<path d="M35.8219 1.40625H36.4277C37.8749 1.40625 39.2049 2.06895 40.0764 3.22432C40.948 4.3797 41.2198 5.84051 40.8222 7.23213L38.0229 17.0296C37.5106 18.8226 36.4529 20.3638 34.9643 21.4867C33.4756 22.6096 31.7032 23.2032 29.8385 23.2032C27.9738 23.2032 26.2013 22.6097 24.7127 21.4867C23.224 20.3638 22.1664 18.8226 21.6541 17.0296L18.8548 7.23213C18.4572 5.84058 18.729 4.37984 19.6005 3.22439C20.472 2.06895 21.8019 1.40625 23.2492 1.40625H23.8673V3.51562H23.2492C22.4699 3.51562 21.7538 3.87246 21.2845 4.49459C20.8152 5.11671 20.6688 5.9033 20.8829 6.65262L23.6822 16.4501C24.4634 19.1842 26.9949 21.0938 29.8384 21.0938C32.6819 21.0938 35.2135 19.1842 35.9946 16.4502L38.7939 6.65269C39.008 5.90337 38.8616 5.11678 38.3924 4.49466C37.9231 3.87246 37.207 3.51562 36.4276 3.51562H35.8219L35.8219 1.40625Z" fill="#4F79FF"/>
<path opacity="0.7" d="M24.918 4.92188C24.3355 4.92188 23.8633 4.44966 23.8633 3.86719V1.05469C23.8633 0.472219 24.3355 0 24.918 0C25.5004 0 25.9727 0.472219 25.9727 1.05469V3.86719C25.9727 4.44966 25.5004 4.92188 24.918 4.92188Z" fill="#4F79FF"/>
<path opacity="0.7" d="M34.7617 4.92188C34.1792 4.92188 33.707 4.44966 33.707 3.86719V1.05469C33.707 0.472219 34.1792 0 34.7617 0C35.3442 0 35.8164 0.472219 35.8164 1.05469V3.86719C35.8164 4.44966 35.3442 4.92188 34.7617 4.92188Z" fill="#4F79FF"/>
<path opacity="0.1" d="M10.2734 34.8047C12.6034 34.8047 14.4922 32.9159 14.4922 30.5859C14.4922 28.256 12.6034 26.3672 10.2734 26.3672C7.94349 26.3672 6.05469 28.256 6.05469 30.5859C6.05469 32.9159 7.94349 34.8047 10.2734 34.8047Z" fill="#4F79FF"/>
<path d="M10.2734 35.8594C7.36566 35.8594 5 33.4937 5 30.5859C5 27.6782 7.36566 25.3125 10.2734 25.3125C13.1812 25.3125 15.5469 27.6782 15.5469 30.5859C15.5469 33.4937 13.1812 35.8594 10.2734 35.8594ZM10.2734 27.4219C8.52877 27.4219 7.10938 28.8413 7.10938 30.5859C7.10938 32.3306 8.52877 33.75 10.2734 33.75C12.0181 33.75 13.4375 32.3306 13.4375 30.5859C13.4375 28.8413 12.0181 27.4219 10.2734 27.4219Z" fill="#4F79FF"/>
<path opacity="0.5" d="M10.2734 31.6406C10.8559 31.6406 11.3281 31.1684 11.3281 30.5859C11.3281 30.0034 10.8559 29.5312 10.2734 29.5312C9.69095 29.5312 9.21875 30.0034 9.21875 30.5859C9.21875 31.1684 9.69095 31.6406 10.2734 31.6406Z" fill="#4F79FF"/>
</g>
<path d="M61.32 21.888H62.92C63.3147 21.2053 63.624 20.528 63.848 19.856C64.072 19.184 64.2373 18.5013 64.344 17.808C64.4613 17.1147 64.5307 16.4 64.552 15.664C64.584 14.928 64.6 14.1547 64.6 13.344V12.912H71.928V21.888H73.832V26.96H71.432V24H63.72V26.96H61.32V21.888ZM66.952 15.024C66.9307 15.6 66.8933 16.192 66.84 16.8C66.7867 17.408 66.7067 18.0107 66.6 18.608C66.4933 19.1947 66.3493 19.7707 66.168 20.336C65.9973 20.8907 65.7787 21.408 65.512 21.888H69.496V15.024H66.952ZM80.5186 15.024C80.4866 15.7387 80.444 16.4587 80.3906 17.184C80.348 17.8987 80.2626 18.592 80.1346 19.264C80.0173 19.936 79.8413 20.5653 79.6066 21.152C79.3826 21.7387 79.068 22.256 78.6626 22.704C78.268 23.152 77.772 23.5093 77.1746 23.776C76.5773 24.0427 75.8466 24.192 74.9826 24.224L74.7106 22.048C75.4786 21.9627 76.0706 21.7707 76.4866 21.472C76.9026 21.1627 77.2173 20.6933 77.4306 20.064C77.6973 19.2853 77.884 18.2827 77.9906 17.056C78.108 15.8187 78.1666 14.4373 78.1666 12.912H85.7346V24H83.2386V15.024H80.5186ZM93.2876 14.944C92.9676 14.944 92.6583 14.9707 92.3596 15.024C92.0716 15.0667 91.8156 15.1467 91.5916 15.264C91.3676 15.3707 91.1863 15.5253 91.0476 15.728C90.909 15.92 90.8396 16.1653 90.8396 16.464C90.8396 17.0293 91.037 17.4187 91.4316 17.632C91.837 17.8453 92.4343 17.952 93.2236 17.952H94.2636V14.96C94.1356 14.9493 93.997 14.944 93.8476 14.944C93.6983 14.944 93.5116 14.944 93.2876 14.944ZM93.3996 12.8C93.8476 12.8 94.3703 12.8267 94.9676 12.88C95.5756 12.9333 96.173 13.024 96.7596 13.152V24H94.2636V20.016H93.4956C93.357 20.016 93.2236 20.016 93.0956 20.016C92.9676 20.016 92.813 20.0053 92.6316 19.984C92.2796 20.464 91.8903 21.0667 91.4636 21.792C91.0476 22.5067 90.6583 23.2427 90.2956 24H87.6556C87.8476 23.5627 88.0503 23.1307 88.2636 22.704C88.4876 22.2773 88.7116 21.872 88.9356 21.488C89.1596 21.104 89.3783 20.752 89.5916 20.432C89.805 20.1013 90.0023 19.8133 90.1836 19.568C89.949 19.4613 89.7143 19.3227 89.4796 19.152C89.2556 18.9707 89.053 18.7573 88.8716 18.512C88.6903 18.2667 88.541 17.9787 88.4236 17.648C88.317 17.3067 88.2636 16.9173 88.2636 16.48C88.2636 15.872 88.381 15.3387 88.6156 14.88C88.861 14.4213 89.2023 14.0373 89.6396 13.728C90.0876 13.4187 90.6263 13.1893 91.2556 13.04C91.8956 12.88 92.6103 12.8 93.3996 12.8ZM108.227 24.224C106.424 24.224 105.048 23.7227 104.099 22.72C103.16 21.7173 102.691 20.2933 102.691 18.448C102.691 17.5307 102.835 16.7147 103.123 16C103.411 15.2747 103.805 14.6667 104.307 14.176C104.808 13.6747 105.405 13.296 106.099 13.04C106.792 12.784 107.544 12.656 108.355 12.656C108.824 12.656 109.251 12.6933 109.635 12.768C110.019 12.832 110.355 12.912 110.643 13.008C110.931 13.0933 111.171 13.184 111.363 13.28C111.555 13.376 111.693 13.4507 111.779 13.504L111.059 15.52C110.717 15.3387 110.317 15.184 109.859 15.056C109.411 14.928 108.899 14.864 108.323 14.864C107.939 14.864 107.56 14.928 107.187 15.056C106.824 15.184 106.499 15.392 106.211 15.68C105.933 15.9573 105.709 16.32 105.539 16.768C105.368 17.216 105.283 17.76 105.283 18.4C105.283 18.912 105.336 19.392 105.443 19.84C105.56 20.2773 105.741 20.656 105.987 20.976C106.243 21.296 106.573 21.552 106.979 21.744C107.384 21.9253 107.875 22.016 108.451 22.016C108.813 22.016 109.139 21.9947 109.427 21.952C109.715 21.9093 109.971 21.8613 110.195 21.808C110.419 21.744 110.616 21.6747 110.787 21.6C110.957 21.5253 111.112 21.456 111.251 21.392L111.939 23.392C111.587 23.6053 111.091 23.7973 110.451 23.968C109.811 24.1387 109.069 24.224 108.227 24.224ZM122.666 12.912V24H120.17V15.024H116.042V24H113.546V12.912H122.666ZM125.233 24V12.912H132.721V15.008H127.729V17.184H132.161V19.232H127.729V21.904H133.089V24H125.233ZM144.056 21.888H145.976V26.96H143.576V24H134.936V12.912H137.432V21.888H141.56V12.912H144.056V21.888ZM147.577 24V12.912H150.057V19.456C150.441 18.88 150.852 18.2827 151.289 17.664C151.726 17.0347 152.164 16.432 152.601 15.856C153.049 15.2693 153.486 14.72 153.913 14.208C154.34 13.696 154.729 13.264 155.081 12.912H157.113V24H154.649V16.736C153.71 17.8347 152.825 19.0027 151.993 20.24C151.161 21.4773 150.388 22.7307 149.673 24H147.577ZM167.095 24C166.977 23.616 166.844 23.2213 166.695 22.816C166.556 22.4107 166.417 22.0053 166.279 21.6H161.959C161.82 22.0053 161.676 22.4107 161.527 22.816C161.388 23.2213 161.26 23.616 161.143 24H158.551C158.967 22.8053 159.361 21.7013 159.735 20.688C160.108 19.6747 160.471 18.72 160.823 17.824C161.185 16.928 161.537 16.08 161.879 15.28C162.231 14.4693 162.593 13.68 162.967 12.912H165.351C165.713 13.68 166.071 14.4693 166.423 15.28C166.775 16.08 167.127 16.928 167.479 17.824C167.841 18.72 168.209 19.6747 168.583 20.688C168.956 21.7013 169.351 22.8053 169.767 24H167.095ZM164.103 15.424C164.049 15.584 163.969 15.8027 163.863 16.08C163.756 16.3573 163.633 16.6773 163.495 17.04C163.356 17.4027 163.201 17.8027 163.031 18.24C162.871 18.6773 162.705 19.136 162.535 19.616H165.687C165.516 19.136 165.351 18.6773 165.191 18.24C165.031 17.8027 164.876 17.4027 164.727 17.04C164.588 16.6773 164.465 16.3573 164.359 16.08C164.252 15.8027 164.167 15.584 164.103 15.424ZM176.253 15.024C176.221 15.7387 176.178 16.4587 176.125 17.184C176.082 17.8987 175.997 18.592 175.869 19.264C175.752 19.936 175.576 20.5653 175.341 21.152C175.117 21.7387 174.802 22.256 174.397 22.704C174.002 23.152 173.506 23.5093 172.909 23.776C172.312 24.0427 171.581 24.192 170.717 24.224L170.445 22.048C171.213 21.9627 171.805 21.7707 172.221 21.472C172.637 21.1627 172.952 20.6933 173.165 20.064C173.432 19.2853 173.618 18.2827 173.725 17.056C173.842 15.8187 173.901 14.4373 173.901 12.912H181.469V24H178.973V15.024H176.253ZM184.03 24V12.912H186.51V19.456C186.894 18.88 187.305 18.2827 187.742 17.664C188.179 17.0347 188.617 16.432 189.054 15.856C189.502 15.2693 189.939 14.72 190.366 14.208C190.793 13.696 191.182 13.264 191.534 12.912H193.566V24H191.102V16.736C190.163 17.8347 189.278 19.0027 188.446 20.24C187.614 21.4773 186.841 22.7307 186.126 24H184.03ZM201.18 24.224C199.377 24.224 198.001 23.7227 197.052 22.72C196.113 21.7173 195.644 20.2933 195.644 18.448C195.644 17.5307 195.788 16.7147 196.076 16C196.364 15.2747 196.758 14.6667 197.26 14.176C197.761 13.6747 198.358 13.296 199.052 13.04C199.745 12.784 200.497 12.656 201.308 12.656C201.777 12.656 202.204 12.6933 202.588 12.768C202.972 12.832 203.308 12.912 203.596 13.008C203.884 13.0933 204.124 13.184 204.316 13.28C204.508 13.376 204.646 13.4507 204.732 13.504L204.012 15.52C203.67 15.3387 203.27 15.184 202.812 15.056C202.364 14.928 201.852 14.864 201.276 14.864C200.892 14.864 200.513 14.928 200.14 15.056C199.777 15.184 199.452 15.392 199.164 15.68C198.886 15.9573 198.662 16.32 198.492 16.768C198.321 17.216 198.236 17.76 198.236 18.4C198.236 18.912 198.289 19.392 198.396 19.84C198.513 20.2773 198.694 20.656 198.94 20.976C199.196 21.296 199.526 21.552 199.932 21.744C200.337 21.9253 200.828 22.016 201.404 22.016C201.766 22.016 202.092 21.9947 202.38 21.952C202.668 21.9093 202.924 21.8613 203.148 21.808C203.372 21.744 203.569 21.6747 203.74 21.6C203.91 21.5253 204.065 21.456 204.204 21.392L204.892 23.392C204.54 23.6053 204.044 23.7973 203.404 23.968C202.764 24.1387 202.022 24.224 201.18 24.224ZM215.067 12.912V15.04H211.723V24H209.227V15.04H205.883V12.912H215.067ZM218.392 18.448C218.392 18.992 218.456 19.4827 218.584 19.92C218.722 20.3573 218.914 20.736 219.16 21.056C219.416 21.3653 219.725 21.6053 220.088 21.776C220.45 21.9467 220.866 22.032 221.336 22.032C221.794 22.032 222.205 21.9467 222.568 21.776C222.941 21.6053 223.25 21.3653 223.496 21.056C223.752 20.736 223.944 20.3573 224.072 19.92C224.21 19.4827 224.28 18.992 224.28 18.448C224.28 17.904 224.21 17.4133 224.072 16.976C223.944 16.528 223.752 16.1493 223.496 15.84C223.25 15.52 222.941 15.2747 222.568 15.104C222.205 14.9333 221.794 14.848 221.336 14.848C220.866 14.848 220.45 14.9387 220.088 15.12C219.725 15.2907 219.416 15.536 219.16 15.856C218.914 16.1653 218.722 16.544 218.584 16.992C218.456 17.4293 218.392 17.9147 218.392 18.448ZM226.856 18.448C226.856 19.3973 226.712 20.2347 226.424 20.96C226.146 21.6747 225.762 22.2773 225.272 22.768C224.781 23.248 224.194 23.6107 223.512 23.856C222.84 24.1013 222.114 24.224 221.336 24.224C220.578 24.224 219.864 24.1013 219.192 23.856C218.52 23.6107 217.933 23.248 217.432 22.768C216.93 22.2773 216.536 21.6747 216.248 20.96C215.96 20.2347 215.816 19.3973 215.816 18.448C215.816 17.4987 215.965 16.6667 216.264 15.952C216.562 15.2267 216.962 14.6187 217.464 14.128C217.976 13.6373 218.562 13.2693 219.224 13.024C219.896 12.7787 220.6 12.656 221.336 12.656C222.093 12.656 222.808 12.7787 223.48 13.024C224.152 13.2693 224.738 13.6373 225.24 14.128C225.741 14.6187 226.136 15.2267 226.424 15.952C226.712 16.6667 226.856 17.4987 226.856 18.448ZM232.632 24.144C232.024 24.144 231.416 24.1227 230.808 24.08C230.211 24.048 229.587 23.9627 228.936 23.824V13.072C229.448 12.976 230.008 12.9067 230.616 12.864C231.224 12.8107 231.79 12.784 232.312 12.784C233.016 12.784 233.662 12.8373 234.248 12.944C234.846 13.04 235.358 13.2107 235.784 13.456C236.211 13.7013 236.542 14.0267 236.776 14.432C237.022 14.8267 237.144 15.3173 237.144 15.904C237.144 16.7893 236.718 17.488 235.864 18C236.568 18.2667 237.048 18.6293 237.304 19.088C237.56 19.5467 237.688 20.064 237.688 20.64C237.688 21.8027 237.262 22.6773 236.408 23.264C235.566 23.8507 234.307 24.144 232.632 24.144ZM231.368 19.168V22.032C231.55 22.0533 231.747 22.0693 231.96 22.08C232.174 22.0907 232.408 22.096 232.664 22.096C233.411 22.096 234.014 21.9893 234.472 21.776C234.931 21.5627 235.16 21.168 235.16 20.592C235.16 20.08 234.968 19.7173 234.584 19.504C234.2 19.28 233.651 19.168 232.936 19.168H231.368ZM231.368 17.264H232.584C233.352 17.264 233.902 17.168 234.232 16.976C234.563 16.7733 234.728 16.4533 234.728 16.016C234.728 15.568 234.558 15.2533 234.216 15.072C233.875 14.8907 233.374 14.8 232.712 14.8C232.499 14.8 232.27 14.8053 232.024 14.816C231.779 14.816 231.56 14.8267 231.368 14.848V17.264Z" fill="#4F79FF"/>
<defs>
<clipPath id="clip0">
<rect width="36" height="36" fill="white" transform="translate(5)"/>
</clipPath>
</defs>
</svg>
