<svg width="1730" height="603" viewBox="0 0 1730 603" fill="none" xmlns="http://www.w3.org/2000/svg">
<g clip-path="url(#clip0)">
<path d="M0 318.59V11H63.78C109.78 11 143.167 14.6933 163.94 22.08C193.773 32.5333 217.107 50.6567 233.94 76.45C250.773 102.243 259.17 132.98 259.13 168.66C259.13 199.48 252.463 226.597 239.13 250.01C225.797 273.423 208.503 290.703 187.25 301.85C166.003 313.01 136.207 318.587 97.86 318.58L0 318.59ZM29.48 289.53H65.03C107.55 289.53 137.033 286.883 153.48 281.59C176.62 274.07 194.813 260.523 208.06 240.95C221.307 221.377 227.933 197.457 227.94 169.19C227.94 139.523 220.76 114.17 206.4 93.13C192.04 72.09 172.04 57.6733 146.4 49.88C127.167 44.0267 95.4533 41.1033 51.26 41.11H29.48V289.53Z" fill="#6F6866"/>
<path d="M465.16 3.25987C511.747 3.25987 550.747 18.8032 582.16 49.8899C613.573 80.9765 629.267 119.243 629.24 164.69C629.24 209.723 613.573 247.92 582.24 279.28C550.907 310.64 512.717 326.323 467.67 326.33C422.05 326.33 383.547 310.717 352.16 279.49C320.773 248.263 305.083 210.483 305.09 166.15C304.892 137.349 312.287 109.004 326.53 83.9699C340.362 59.3952 360.503 38.9584 384.874 24.7699C409.244 10.5815 436.96 3.15584 465.16 3.25987ZM466.52 33.1599C443.76 33.1599 422.187 39.0932 401.8 50.9599C381.871 62.3447 365.376 78.8875 354.05 98.8499C342.59 118.93 336.863 141.32 336.87 166.02C336.87 202.58 349.537 233.45 374.87 258.63C400.203 283.81 430.75 296.4 466.51 296.4C489.753 296.565 512.625 290.571 532.8 279.03C552.705 267.858 569.152 251.425 580.34 231.53C591.72 211.443 597.41 189.11 597.41 164.53C597.41 140.13 591.72 118.053 580.34 98.2999C568.96 78.5465 552.937 62.7499 532.27 50.9099C512.32 39.2555 489.625 33.1286 466.52 33.1599V33.1599Z" fill="#6F6866"/>
<path d="M977.37 68.0802L953.11 86.6902C939.73 69.2702 923.663 56.0636 904.91 47.0702C886.157 38.0769 865.56 33.5802 843.12 33.5802C819.239 33.4068 795.73 39.4995 774.94 51.2502C754.027 63.0369 737.823 78.8602 726.33 98.7202C714.837 118.58 709.083 140.914 709.07 165.72C709.07 203.22 721.93 234.514 747.65 259.6C773.37 284.687 805.817 297.234 844.99 297.24C888.07 297.24 924.107 280.374 953.1 246.64L977.36 265.04C962.11 284.491 942.429 300.013 919.96 310.31C897.033 320.977 871.417 326.31 843.11 326.31C789.303 326.31 746.857 308.397 715.77 272.57C689.697 242.33 676.66 205.807 676.66 163C676.66 117.967 692.447 80.0836 724.02 49.3502C755.593 18.6169 795.15 3.2469 842.69 3.24023C871.41 3.24023 897.34 8.9069 920.48 20.2402C943.13 31.2021 962.685 47.6461 977.37 68.0802Z" fill="#6F6866"/>
<path d="M1296.2 6.33448e-05C1342.79 6.33448e-05 1381.79 15.5434 1413.2 46.6301C1444.61 77.7167 1460.31 115.983 1460.28 161.43C1460.28 206.463 1444.61 244.66 1413.28 276.02C1381.95 307.38 1343.76 323.063 1298.73 323.07C1253.11 323.07 1214.61 307.457 1183.22 276.23C1151.83 245.003 1136.13 207.21 1136.12 162.85C1135.93 134.048 1143.33 105.705 1157.57 80.6701C1171.4 56.0954 1191.54 35.6586 1215.91 21.4701C1240.28 7.28168 1268 -0.14396 1296.2 -0.0399376V6.33448e-05ZM1297.56 29.9001C1274.8 29.9001 1253.23 35.8334 1232.84 47.7001C1212.91 59.0953 1196.41 75.6481 1185.08 95.6201C1173.65 115.7 1167.94 138.09 1167.94 162.79C1167.94 199.35 1180.61 230.22 1205.94 255.4C1231.27 280.58 1261.82 293.17 1297.58 293.17C1320.81 293.347 1343.67 287.371 1363.84 275.85C1383.75 264.679 1400.2 248.246 1411.39 228.35C1422.76 208.263 1428.45 185.93 1428.46 161.35C1428.46 136.937 1422.77 114.857 1411.39 95.1101C1400.01 75.3634 1383.99 59.5667 1363.32 47.7201C1343.37 36.0395 1320.67 29.8883 1297.56 29.9001V29.9001Z" fill="#6F6866"/>
<path d="M1521.94 7.74023H1553.3V123.17L1676.3 7.74023H1717.6L1569.86 145.74L1729.1 315.32H1688.16L1553.29 172.06V315.33H1521.94V7.74023Z" fill="#6F6866"/>
<path d="M1299.71 140.63H992.8V197.73H1299.71V140.63Z" fill="#4F79FF"/>
<path d="M46.88 370.11H61.3L85.4 431.64H93.74V456.24H79.94V445.03H28.39V456.24H14.58V431.64H22.87L46.88 370.11ZM54.21 389.98L37.8 431.64H70.57L54.21 389.98Z" fill="#6F6866"/>
<path d="M138.33 368.22C143.434 368.162 148.495 369.154 153.198 371.136C157.902 373.118 162.147 376.047 165.67 379.74C169.393 383.398 172.329 387.779 174.298 392.613C176.267 397.446 177.228 402.632 177.12 407.85C177.225 413.002 176.277 418.121 174.336 422.894C172.395 427.667 169.501 431.994 165.83 435.61C162.286 439.281 158.024 442.184 153.311 444.138C148.597 446.093 143.532 447.057 138.43 446.97C127.183 446.97 117.85 443.08 110.43 435.3C104.99 429.778 101.301 422.773 99.8254 415.163C98.3501 407.553 99.1542 399.677 102.137 392.522C105.12 385.367 110.148 379.251 116.592 374.943C123.036 370.634 130.608 368.323 138.36 368.3L138.33 368.22ZM138.18 382.22C134.923 382.148 131.686 382.753 128.675 383.998C125.665 385.242 122.945 387.099 120.69 389.45C115.963 394.277 113.6 400.407 113.6 407.84C113.6 416.127 116.573 422.68 122.52 427.5C126.985 431.214 132.623 433.219 138.43 433.16C141.664 433.207 144.872 432.578 147.849 431.314C150.826 430.05 153.507 428.179 155.72 425.82C160.317 420.916 162.874 414.447 162.874 407.725C162.874 401.004 160.317 394.534 155.72 389.63C153.48 387.231 150.761 385.328 147.74 384.045C144.719 382.762 141.462 382.126 138.18 382.18V382.22Z" fill="#6F6866"/>
<path d="M197.83 370.11H211.73L229.09 422.37L246.62 370.11H260.51L273.08 445.03H259.29L251.29 397.72L235.37 445.03H222.77L206.99 397.72L198.76 445.03H184.86L197.83 370.11Z" fill="#6F6866"/>
<path d="M307.29 370.11H321.76L350.57 445.03H335.75L329.94 429.6H299.32L293.22 445.03H278.4L307.29 370.11ZM314.61 389.97L304.56 415.7H324.61L314.61 389.97Z" fill="#6F6866"/>
<path d="M396.03 432.2V370.11H410.4V432.2H430.77V370.11H445.24V445.03H361.55V370.11H376.02V432.2H396.03Z" fill="#6F6866"/>
<path d="M462.2 370.11H476.66V398.38H501.66V370.11H516.08V445.03H501.67V412.18H476.67V445.03H462.2V370.11Z" fill="#6F6866"/>
<path d="M587.75 370.11V445.03H573.49V398.12L545.55 445.03H533.15V370.11H547.41V418.55L575.73 370.11H587.75Z" fill="#6F6866"/>
<path d="M604.94 370.11H645.84V384.11H619.08V397.65H645.82V411.36H619.08V431.07H645.82V445.07H604.94V370.11Z" fill="#6F6866"/>
<path d="M709.25 427.85L682.63 370.12H698.73L716.39 411.85L730.84 370.07H745.51L725.51 423.66C722.083 432.82 718.353 438.953 714.32 442.06C710.683 445.031 706.145 446.677 701.45 446.73C694.037 446.73 687.203 443.096 680.95 435.83L690.32 426.4C694.06 430.746 697.75 432.92 701.39 432.92C702.818 432.976 704.225 432.557 705.39 431.73C706.825 430.593 708.12 429.29 709.25 427.85Z" fill="#6F6866"/>
<path d="M755.12 370.11H809.01V445.03H794.6V383.45H769.6V445.03H755.12V370.11Z" fill="#6F6866"/>
<path d="M826.07 370.11H841.2C849.38 370.11 855.28 370.867 858.9 372.38C862.464 373.844 865.465 376.413 867.46 379.71C869.625 383.381 870.71 387.589 870.59 391.85C870.752 396.525 869.305 401.114 866.49 404.85C863.646 408.385 859.746 410.919 855.36 412.08C852.613 412.86 847.613 413.25 840.36 413.25V444.98H826.07V370.11ZM840.33 399.4H844.87C847.372 399.525 849.877 399.265 852.3 398.63C853.641 398.164 854.796 397.277 855.59 396.1C856.417 394.833 856.836 393.342 856.79 391.83C856.873 390.567 856.602 389.306 856.008 388.188C855.415 387.07 854.522 386.139 853.43 385.5C851.8 384.5 848.77 384.01 844.36 384.01H840.36L840.33 399.4Z" fill="#6F6866"/>
<path d="M907.4 370.11H921.87L950.68 445.03H935.86L930 429.6H899.43L893.33 445.03H878.51L907.4 370.11ZM914.72 389.97L904.72 415.7H924.72L914.72 389.97Z" fill="#6F6866"/>
<path d="M994.67 411.77L992.67 409.59L971.54 445.03H954.63L982.32 401.66L957.18 370.11H974.35L994.63 396.95V370.11H1009.09V396.92L1029.37 370.11H1046.59L1021.43 401.71L1049.09 445.03H1032.18L1011.05 409.59L1009.05 411.77V445.03H994.59L994.67 411.77Z" fill="#6F6866"/>
<path d="M1059.2 370.11H1073.67V398.38H1098.67V370.11H1113.08V445.03H1098.67V412.18H1073.67V445.03H1059.2V370.11Z" fill="#6F6866"/>
<path d="M1130.25 370.11H1171.15V384.11H1144.41V397.65H1171.15V411.36H1144.41V431.07H1171.15V445.07H1130.25V370.11Z" fill="#6F6866"/>
<path d="M1184.4 370.11H1198.86V398.38H1223.86V370.11H1238.28V445.03H1223.86V412.18H1198.86V445.03H1184.4V370.11Z" fill="#6F6866"/>
<path d="M1309.94 370.11V445.03H1295.68V398.12L1267.74 445.03H1255.34V370.11H1269.6V418.55L1297.94 370.11H1309.94Z" fill="#6F6866"/>
<path d="M1371.18 370.11V445.03H1356.94V414.85H1353.38L1338.32 445H1322.74L1339.74 412.52C1329.87 409.72 1324.94 403.163 1324.94 392.85C1324.87 389.589 1325.39 386.343 1326.49 383.27C1327.45 380.678 1328.96 378.324 1330.91 376.37C1332.8 374.502 1335.08 373.074 1337.58 372.19C1339.51 371.445 1341.53 370.925 1343.58 370.64C1345.07 370.513 1349.22 370.327 1356.04 370.08L1371.18 370.11ZM1356.94 400.98V384.07H1353.03C1350.46 383.978 1347.89 384.19 1345.37 384.7C1343.81 385.133 1342.46 386.108 1341.55 387.45C1340.53 388.995 1340.02 390.82 1340.08 392.67C1340.08 395.763 1341.08 397.92 1343.08 399.14C1345.08 400.36 1348.19 400.98 1352.52 400.98H1356.94Z" fill="#6F6866"/>
<path d="M45.77 516.85H60.18L84.28 578.38H92.62V602.98H78.82V591.78H27.27V602.98H13.47V578.38H21.76L45.77 516.85ZM53.1 536.72L36.68 578.38H69.46L53.1 536.72Z" fill="#019489"/>
<path d="M155.87 591.73L135.13 536.64L114.03 591.73H98.9399L127.82 516.85H142.29L171.1 591.78L155.87 591.73Z" fill="#019489"/>
<path d="M229.38 516.85V591.78H215.12V561.57H211.56L196.5 591.73H180.94L197.94 559.24C188.113 556.42 183.2 549.863 183.2 539.57C183.129 536.312 183.654 533.069 184.75 530C185.705 527.403 187.213 525.046 189.17 523.09C191.063 521.228 193.339 519.801 195.84 518.91C197.774 518.164 199.787 517.644 201.84 517.36C203.333 517.233 207.487 517.046 214.3 516.8L229.38 516.85ZM215.12 547.72V530.76H211.21C208.637 530.668 206.063 530.88 203.54 531.39C201.984 531.825 200.633 532.8 199.73 534.14C198.715 535.687 198.202 537.51 198.26 539.36C198.26 542.46 199.26 544.61 201.21 545.83C203.16 547.05 206.32 547.67 210.65 547.67L215.12 547.72Z" fill="#019489"/>
<path d="M286.74 591.73V516.85H298.52C305.36 516.85 310.35 517.29 313.52 518.17C317.705 519.177 321.456 521.501 324.22 524.8C326.878 528.001 328.297 532.05 328.22 536.21C328.257 538.904 327.639 541.567 326.42 543.97C324.973 546.568 322.96 548.807 320.53 550.52C325.077 552.66 328.41 555.327 330.53 558.52C332.664 561.907 333.749 565.848 333.65 569.85C333.689 573.923 332.557 577.921 330.39 581.37C328.357 584.703 325.43 587.399 321.94 589.15C318.507 590.87 313.763 591.73 307.71 591.73H286.74ZM301 530.4V546.19H304.12C307.6 546.19 310.183 545.46 311.87 544C312.718 543.257 313.387 542.33 313.825 541.291C314.263 540.252 314.46 539.127 314.4 538C314.445 536.949 314.252 535.902 313.837 534.936C313.421 533.97 312.793 533.11 312 532.42C310.4 531.053 307.96 530.367 304.68 530.36L301 530.4ZM301 558.92V578.13H304.58C310.5 578.13 314.5 577.38 316.58 575.88C317.598 575.14 318.415 574.156 318.954 573.019C319.494 571.881 319.74 570.627 319.67 569.37C319.726 567.897 319.425 566.432 318.793 565.1C318.161 563.768 317.217 562.608 316.04 561.72C313.62 559.86 309.603 558.927 303.99 558.92H301Z" fill="#019489"/>
<path d="M375.64 516.85H390.1L418.94 591.73H404.1L398.24 576.29H367.67L361.57 591.73H346.75L375.64 516.85ZM382.94 536.67L372.94 562.39H392.94L382.94 536.67Z" fill="#019489"/>
<path d="M469.94 578.85V516.85H484.3V578.85H504.64V516.85H519.11V591.78H435.42V516.85H449.94V578.85H469.94Z" fill="#019489"/>
<path d="M596.2 516.85V591.78H581.94V544.85L554 591.77H541.6V516.85H555.86V565.29L584.18 516.85H596.2Z" fill="#019489"/>
<path d="M613.94 516.85H629.99L645.73 540.85L661.51 516.85H677.51L653.74 553.18L679.01 591.78H663.01L645.77 565.43L628.53 591.78H612.4L637.74 553.15L613.94 516.85Z" fill="#019489"/>
<path d="M729.99 516.85H783.88V591.78H769.46V530.15H744.46V591.73H729.99V516.85Z" fill="#019489"/>
<path d="M829.38 516.85H843.84L872.66 591.78H857.84L851.94 576.29H821.4L815.31 591.73H800.48L829.38 516.85ZM836.7 536.72L826.7 562.44H846.7L836.7 536.72Z" fill="#019489"/>
<path d="M889.16 591.73V516.85H903.63V578.85H928.74V516.85H943.15V578.85H958.38V602.85H945.04V591.65L889.16 591.73Z" fill="#019489"/>
<path d="M1027.53 516.85V591.78H1013.27V544.85L985.33 591.77H972.94V516.85H987.2V565.29L1015.51 516.85H1027.53Z" fill="#019489"/>
<path d="M1050.22 516.85H1091.12V530.85H1064.38V544.4H1091.12V558.1H1064.38V577.81H1091.12V591.81H1050.22V516.85Z" fill="#019489"/>
<path d="M1109.94 516.85H1124.4V545.12H1149.4V516.85H1163.82V591.78H1149.4V558.85H1124.4V591.71H1109.94V516.85Z" fill="#019489"/>
<path d="M1179.04 516.85H1220.45V530.85H1206.8V591.72H1192.33V530.85H1179.04V516.85Z" fill="#019489"/>
<path d="M1271.13 514.92C1276.23 514.862 1281.3 515.853 1286 517.833C1290.71 519.813 1294.95 522.739 1298.48 526.43C1302.2 530.081 1305.13 534.453 1307.1 539.278C1309.08 544.103 1310.04 549.279 1309.94 554.49C1310.05 559.642 1309.1 564.761 1307.16 569.535C1305.22 574.308 1302.32 578.635 1298.65 582.25C1295.11 585.92 1290.85 588.823 1286.14 590.777C1281.42 592.731 1276.36 593.696 1271.26 593.61C1260.01 593.61 1250.68 589.723 1243.26 581.95C1239.04 577.661 1235.87 572.464 1233.97 566.758C1232.07 561.052 1231.5 554.987 1232.3 549.027C1233.11 543.068 1235.27 537.371 1238.61 532.373C1241.96 527.375 1246.4 523.208 1251.6 520.19C1257.52 516.717 1264.27 514.897 1271.13 514.92ZM1270.94 528.85C1267.68 528.78 1264.45 529.387 1261.44 530.632C1258.43 531.876 1255.71 533.731 1253.45 536.08C1248.73 540.913 1246.37 547.043 1246.36 554.47C1246.36 562.757 1249.34 569.31 1255.29 574.13C1259.75 577.877 1265.41 579.905 1271.24 579.85C1274.47 579.896 1277.68 579.267 1280.65 578.003C1283.63 576.739 1286.31 574.868 1288.52 572.51C1293.12 567.609 1295.69 561.138 1295.69 554.415C1295.69 547.691 1293.12 541.221 1288.52 536.32C1286.28 533.91 1283.55 532 1280.53 530.713C1277.5 529.426 1274.23 528.791 1270.94 528.85V528.85Z" fill="#019489"/>
<path d="M1328.94 591.73V516.85H1340.71C1347.55 516.85 1352.55 517.29 1355.71 518.17C1359.9 519.177 1363.65 521.501 1366.42 524.8C1369.07 528.003 1370.49 532.051 1370.42 536.21C1370.45 538.905 1369.83 541.568 1368.61 543.97C1367.16 546.566 1365.16 548.804 1362.73 550.52C1367.27 552.66 1370.6 555.327 1372.73 558.52C1374.89 561.917 1375.99 565.877 1375.89 569.9C1375.93 573.975 1374.79 577.974 1372.62 581.42C1370.6 584.743 1367.68 587.431 1364.21 589.18C1360.78 590.9 1356.04 591.76 1349.98 591.76L1328.94 591.73ZM1343.2 530.4V546.19H1346.32C1349.79 546.19 1352.38 545.46 1354.06 544C1354.91 543.257 1355.58 542.33 1356.02 541.291C1356.45 540.252 1356.65 539.127 1356.59 538C1356.63 536.949 1356.44 535.902 1356.03 534.936C1355.61 533.97 1354.98 533.11 1354.19 532.42C1352.59 531.053 1350.15 530.367 1346.88 530.36L1343.2 530.4ZM1343.2 558.92V578.13H1346.77C1352.7 578.13 1356.7 577.38 1358.77 575.88C1359.79 575.14 1360.6 574.156 1361.14 573.019C1361.68 571.881 1361.93 570.627 1361.86 569.37C1361.92 567.897 1361.62 566.432 1360.98 565.1C1360.35 563.768 1359.41 562.608 1358.23 561.72C1355.81 559.86 1351.81 558.927 1346.23 558.92H1343.2Z" fill="#019489"/>
<path d="M1444.94 448.3C1456.07 448.3 1466.07 453.007 1474.94 462.42L1488.03 449.94C1482.73 443.762 1476.15 438.799 1468.76 435.389C1461.36 431.979 1453.32 430.202 1445.18 430.18C1435.83 430.133 1426.62 432.529 1418.48 437.13C1410.57 441.414 1403.98 447.772 1399.42 455.52C1396.23 461.061 1394.16 467.178 1393.33 473.52H0.330017V489.85H1393.33C1394.55 500.853 1399.49 511.109 1407.33 518.92C1417.06 528.607 1429.57 533.453 1444.86 533.46C1452.44 533.592 1459.97 532.191 1466.99 529.34C1473.45 526.6 1480.31 521.683 1487.58 514.59L1474.94 501.36C1469.55 506.693 1464.61 510.387 1460.12 512.44C1455.43 514.494 1450.34 515.517 1445.22 515.44C1439.15 515.516 1433.17 514.017 1427.85 511.09C1422.77 508.314 1418.57 504.153 1415.76 499.09C1412.84 493.74 1411.37 487.722 1411.49 481.63C1411.43 477.227 1412.25 472.855 1413.9 468.775C1415.56 464.695 1418.02 460.988 1421.13 457.875C1424.25 454.761 1427.95 452.305 1432.03 450.65C1436.12 448.995 1440.49 448.175 1444.89 448.24L1444.94 448.3Z" fill="#4F79FF"/>
<path d="M1550.87 430.18C1541.86 430.191 1533 432.568 1525.2 437.073C1517.39 441.577 1510.9 448.052 1506.38 455.85C1500.81 465.696 1498.56 477.077 1499.97 488.303C1501.38 499.528 1506.37 509.999 1514.21 518.16C1523.98 528.36 1536.24 533.463 1551 533.47C1557.7 533.591 1564.36 532.329 1570.55 529.764C1576.75 527.199 1582.35 523.385 1587 518.56C1596.88 508.62 1601.82 496.474 1601.82 482.12C1601.82 467.64 1596.82 455.363 1586.82 445.29C1576.82 435.217 1564.84 430.18 1550.87 430.18ZM1573.69 505.72C1570.79 508.817 1567.27 511.273 1563.36 512.931C1559.45 514.589 1555.24 515.413 1551 515.35C1543.38 515.435 1535.98 512.804 1530.13 507.93C1522.32 501.597 1518.42 492.994 1518.41 482.12C1518.41 472.36 1521.51 464.317 1527.72 457.99C1530.73 454.962 1534.32 452.564 1538.27 450.935C1542.22 449.306 1546.45 448.478 1550.72 448.5C1554.99 448.523 1559.22 449.394 1563.15 451.065C1567.08 452.735 1570.64 455.171 1573.62 458.23C1576.7 461.358 1579.13 465.072 1580.75 469.154C1582.37 473.235 1583.16 477.6 1583.06 481.99C1583.06 491.39 1579.94 499.3 1573.69 505.72Z" fill="#4F79FF"/>
<path d="M1711.23 432.65H1693L1670 501.25L1647.21 432.65H1628.97L1611.94 530.99H1630.19L1640.99 468.89L1661.69 530.99H1678.19L1699.08 468.89L1709.63 530.99H1727.73L1711.23 432.65Z" fill="#4F79FF"/>
</g>
<defs>
<clipPath id="clip0">
<rect width="1729.05" height="602.93" fill="white"/>
</clipPath>
</defs>
</svg>
