<svg width="112" height="100" viewBox="0 0 112 100" fill="none" xmlns="http://www.w3.org/2000/svg">
<path d="M98.3435 1.65625L71.4586 97.6735L50.9805 64.382L98.3435 1.65625Z" fill="#EEF2FF"/>
<path d="M90.4481 12.1105L68.043 92.1244L71.4565 97.6735L98.3414 1.65625L90.4481 12.1105Z" fill="#B2C4FF"/>
<path d="M98.3469 1.65625L50.9839 64.382L37.0945 62.9087L35.6211 49.0193L98.3469 1.65625Z" fill="#EEF2FF"/>
<path d="M98.3415 1.65625L35.6157 49.0193L2.32422 28.5411L98.3415 1.65625Z" fill="#EEF2FF"/>
<path d="M37.0891 62.9087L50.9785 64.382L68.0431 92.1244L71.4567 97.6735L73.0095 92.1244L55.9449 64.382L42.0555 62.9087L40.5821 49.0193L7.29063 28.5411L97.9194 3.16438L98.3415 1.65625L2.32422 28.5411L35.6157 49.0193L37.0891 62.9087Z" fill="white"/>
<path d="M1.47266 29.9473L3.20759 27.1263L14.4941 34.0678L12.7592 36.8887L1.47266 29.9473Z" fill="white"/>
<path d="M7.9958 33.6664C7.40436 33.6694 6.85626 33.3566 6.55798 32.8458C6.2597 32.3351 6.25654 31.7041 6.5497 31.1904C6.84286 30.6767 7.3878 30.3584 7.97925 30.3555H7.9958C8.91009 30.3555 9.65127 31.0966 9.65127 32.0109C9.65127 32.9252 8.91009 33.6664 7.9958 33.6664Z" fill="#4F79FF"/>
<path d="M97.8972 0.0616132L1.87993 26.9464C1.28335 27.0815 0.809829 27.5345 0.648505 28.1245C0.487181 28.7145 0.664342 29.3454 1.10923 29.7652C1.55412 30.1849 2.19422 30.3252 2.77388 30.1299L90.3598 5.61075L35.5174 47.0157L14.4731 34.0716C13.7006 33.6512 12.7342 33.9083 12.2726 34.657C11.8111 35.4057 12.0155 36.3845 12.7382 36.8859L34.0523 50.0038L35.4462 63.0821C35.5293 63.8576 36.1423 64.47 36.918 64.5521L49.9962 65.946L70.0489 98.5406C70.3502 99.0304 70.8842 99.3287 71.4593 99.3286C71.5358 99.3289 71.6122 99.3234 71.6878 99.312C72.3394 99.2214 72.8756 98.7535 73.0536 98.1201L99.9384 2.10281C100.1 1.52664 99.9382 0.908065 99.5151 0.484915C99.0919 0.0617655 98.4734 -0.100078 97.8972 0.0616132ZM37.3583 49.7803L89.8748 10.1252L50.2197 62.6417L38.5966 61.4034L37.3583 49.7803ZM70.8849 93.5824L52.9843 64.4826L94.3893 9.64016L70.8849 93.5824Z" fill="#4F79FF"/>
<path d="M29.2968 68.3592L25.9859 71.6702C25.5556 72.0858 25.383 72.7013 25.5345 73.2801C25.686 73.8589 26.138 74.311 26.7168 74.4625C27.2956 74.614 27.9111 74.4414 28.3267 74.011L31.6377 70.7001C32.2651 70.0505 32.2561 69.018 31.6175 68.3794C30.9789 67.7408 29.9464 67.7319 29.2968 68.3592Z" fill="#4F79FF"/>
<path d="M17.7113 82.2884C18.3577 82.9346 19.4056 82.9346 20.0521 82.2884L23.363 78.9774C23.9904 78.3279 23.9814 77.2953 23.3429 76.6568C22.7043 76.0182 21.6718 76.0092 21.0222 76.6366L17.7113 79.9475C17.065 80.594 17.065 81.6419 17.7113 82.2884Z" fill="#4F79FF"/>
<path d="M9.43392 90.5657C10.0804 91.212 11.1283 91.212 11.7748 90.5657L15.0857 87.2548C15.7131 86.6052 15.7041 85.5727 15.0655 84.9341C14.427 84.2955 13.3944 84.2866 12.7449 84.9139L9.43392 88.2249C8.78765 88.8713 8.78765 89.9192 9.43392 90.5657Z" fill="#4F79FF"/>
<path d="M41.5728 78.9778L44.8838 75.6669C45.5112 75.0173 45.5022 73.9848 44.8636 73.3462C44.225 72.7076 43.1925 72.6987 42.5429 73.326L39.232 76.637C38.8016 77.0526 38.6291 77.6681 38.7806 78.2469C38.9321 78.8257 39.3841 79.2778 39.9629 79.4293C40.5417 79.5808 41.1572 79.4082 41.5728 78.9778Z" fill="#4F79FF"/>
<path d="M34.2695 81.6034L30.9586 84.9143C30.5282 85.33 30.3556 85.9455 30.5071 86.5243C30.6586 87.1031 31.1106 87.5551 31.6894 87.7066C32.2682 87.8581 32.8838 87.6855 33.2994 87.2552L36.6103 83.9442C37.2377 83.2946 37.2287 82.2621 36.5902 81.6235C35.9516 80.985 34.9191 80.976 34.2695 81.6034Z" fill="#4F79FF"/>
<path d="M24.332 55.1161L21.0211 58.427C20.5907 58.8427 20.4181 59.4582 20.5696 60.037C20.7211 60.6158 21.1731 61.0678 21.7519 61.2193C22.3307 61.3708 22.9463 61.1982 23.3619 60.7678L26.6728 57.4569C27.3002 56.8073 27.2912 55.7748 26.6527 55.1362C26.0141 54.4977 24.9816 54.4887 24.332 55.1161Z" fill="#4F79FF"/>
<path d="M16.0586 63.3934L12.7476 66.7044C12.3173 67.12 12.1447 67.7355 12.2962 68.3143C12.4477 68.8931 12.8997 69.3451 13.4785 69.4966C14.0573 69.6481 14.6728 69.4755 15.0885 69.0452L18.3994 65.7343C19.0268 65.0847 19.0178 64.0522 18.3792 63.4136C17.7407 62.775 16.7081 62.766 16.0586 63.3934Z" fill="#4F79FF"/>
<rect x="67" y="51" width="44" height="44" rx="22" fill="white"/>
<path d="M99.0159 54.5414C99.2792 54.056 99.1001 53.4467 98.6031 53.2056C94.5261 51.2281 89.9291 50.5541 85.4414 51.2899C80.6241 52.0798 76.2063 54.4492 72.8835 58.0252C69.5607 61.6012 67.5216 66.1807 67.0873 71.0427C66.653 75.9047 67.8481 80.773 70.4844 84.8813C73.1208 88.9895 77.0487 92.1044 81.6497 93.7355C86.2508 95.3666 91.2637 95.4212 95.8992 93.8908C100.535 92.3604 104.53 89.3319 107.255 85.2821C109.794 81.5094 111.096 77.0499 110.997 72.5199C110.985 71.9677 110.506 71.551 109.955 71.5881L108.276 71.7012C107.725 71.7384 107.312 72.2154 107.319 72.7676C107.366 76.4818 106.282 80.1315 104.199 83.2263C101.93 86.5982 98.6042 89.1198 94.7446 90.394C90.885 91.6682 86.7112 91.6227 82.8803 90.2646C79.0494 88.9066 75.779 86.3131 73.5839 82.8925C71.3888 79.4719 70.3938 75.4185 70.7554 71.3703C71.117 67.3222 72.8148 63.5092 75.5814 60.5318C78.348 57.5544 82.0263 55.5815 86.0373 54.9239C89.7185 54.3203 93.4881 54.8561 96.8451 56.4466C97.3441 56.6831 97.9501 56.5058 98.2135 56.0203L99.0159 54.5414Z" fill="#68D94C"/>
<path d="M78 73.5L86 81.5L104.5 64" stroke="#68D94C" stroke-width="5" stroke-linecap="round" stroke-linejoin="round"/>
</svg>
