<svg width="93" height="93" viewBox="0 0 93 93" fill="none" xmlns="http://www.w3.org/2000/svg">
<path d="M79.3408 37.1992H84.1208C84.3608 37.1992 84.5553 39.8294 84.5553 43.0741V82.7299C84.5553 85.9746 84.3608 88.6048 84.1208 88.6048H79.3408C79.1008 88.6048 78.9062 85.9746 78.9062 82.7299V43.0741C78.9062 39.8294 79.1008 37.1992 79.3408 37.1992Z" fill="#B2C4FF"/>
<path d="M12.4812 37.1992H76.0312C79.4555 37.1992 82.2312 39.9749 82.2312 43.3991V85.2488C82.2312 88.673 79.4555 91.4487 76.0312 91.4487H12.4812C9.05695 91.4487 6.28125 88.673 6.28125 85.2488V43.3991C6.28125 39.9749 9.05695 37.1992 12.4812 37.1992Z" fill="#EEF2FF"/>
<path d="M82.2312 43.3991V49.599H6.28125V43.3991C6.28125 39.9749 9.05695 37.1992 12.4812 37.1992H76.0312C79.4555 37.1992 82.2312 39.9749 82.2312 43.3991Z" fill="#EEF2FF"/>
<path d="M71.3812 32.5492V37.1995H21.7812V32.5492C21.7862 30.8392 23.1712 29.4542 24.8812 29.4492H68.2812C69.9912 29.4542 71.3762 30.8392 71.3812 32.5492Z" fill="#B2C4FF"/>
<path d="M66.7309 32.5492V37.1995H21.7812V32.5492C21.7862 30.8392 23.1712 29.4542 24.8812 29.4492H63.631C65.3409 29.4542 66.726 30.8392 66.7309 32.5492Z" fill="#EEF2FF"/>
<path d="M52.7796 7.17578C61.0982 9.86279 66.734 17.6081 66.7298 26.3495V29.4495H26.4297V26.3495C26.4261 17.6081 32.0613 9.86279 40.3798 7.17578H52.7796Z" fill="#EEF2FF"/>
<path d="M34.1801 21.6998H26.9727C27.8241 18.0933 29.659 14.794 32.2736 12.168L34.1801 21.6998Z" fill="#A4C2F7"/>
<path d="M66.1886 21.6998H58.9805L60.887 12.168C63.5016 14.794 65.3372 18.0933 66.1886 21.6998Z" fill="#B2C4FF"/>
<path d="M26.4308 29.4504H24.8812C23.1712 29.4553 21.7862 30.8403 21.7812 32.5503V37.2006H26.4308V32.5503C26.4358 30.8403 27.8208 29.4553 29.5308 29.4504H31.0811V26.3504C31.0818 24.7845 31.2656 23.2242 31.6282 21.7001C31.6282 21.6788 31.6402 21.6568 31.6466 21.6356C31.709 21.3716 31.7864 21.1148 31.8588 20.86C31.9226 20.6372 31.9829 20.4109 32.0546 20.1909C32.1348 19.9398 32.2249 19.6928 32.315 19.4466C32.3973 19.2238 32.4789 19.0003 32.5676 18.7804C32.6556 18.5604 32.7655 18.3149 32.8776 18.0794C32.989 17.8438 33.082 17.6366 33.1877 17.4195C33.2927 17.2024 33.4091 16.976 33.5269 16.7575C33.6447 16.539 33.7688 16.3297 33.8944 16.1175C34.02 15.9046 34.1456 15.6911 34.279 15.4832C34.4117 15.276 34.5408 15.0944 34.6756 14.9021C34.8104 14.7098 34.9665 14.4728 35.1219 14.2663C35.2149 14.1429 35.3156 14.0265 35.4114 13.9038C37.8784 10.7556 41.2274 8.4141 45.0312 7.17667V3.1004C45.0312 2.24471 45.7252 1.55078 46.5809 1.55078H41.9313C41.0749 1.55078 40.381 2.24471 40.381 3.1004V7.17667C36.575 8.41126 33.2225 10.7513 30.7526 13.8995C30.6561 14.0215 30.5553 14.1379 30.4624 14.2621C30.3077 14.4678 30.1637 14.6835 30.0161 14.8978C29.8692 15.1114 29.7465 15.2817 29.6195 15.4789C29.4925 15.6755 29.3605 15.9004 29.2349 16.1125C29.1093 16.3254 28.9851 16.5376 28.8674 16.7525C28.7496 16.9682 28.6382 17.1917 28.5282 17.4145C28.4182 17.638 28.3161 17.8516 28.2181 18.0751C28.1202 18.2979 28.0117 18.5399 27.9081 18.7754C27.8045 19.011 27.7378 19.2189 27.6555 19.4424C27.5654 19.6886 27.476 19.9348 27.3951 20.186C27.3241 20.4059 27.2631 20.6323 27.2 20.8558C27.1269 21.1148 27.0446 21.3716 26.9871 21.6306C26.9871 21.6526 26.9736 21.6739 26.9687 21.6959C26.6089 23.2214 26.4287 24.783 26.4308 26.3504V29.4504Z" fill="white"/>
<path d="M6.28125 43.3991V85.2488C6.28125 88.673 9.05695 91.4487 12.4812 91.4487H17.1314C13.7072 91.4487 10.9315 88.673 10.9315 85.2488V43.3991C10.9315 39.9749 13.7072 37.1992 17.1314 37.1992H12.4812C9.05695 37.1992 6.28125 39.9749 6.28125 43.3991Z" fill="white"/>
<path d="M4.73047 85.2501V43.4004H7.83042V85.2501H4.73047Z" fill="white"/>
<path d="M4.73047 83.4164C4.73533 87.6029 8.12756 90.9951 12.3133 91H79.047C83.2328 90.9951 86.6251 87.6029 86.6306 83.4164V42.4667C86.6251 38.2809 83.2328 34.888 79.047 34.8831H71.4635V31.8499C71.4635 29.3373 69.4265 27.3003 66.9139 27.3003V25.7833C66.9347 16.9792 61.4972 9.0832 53.2638 5.96382V3.03329C53.2638 1.358 51.9058 0 50.2305 0H41.1306C39.4553 0 38.0973 1.358 38.0973 3.03329V5.96382C29.8639 9.0832 24.4257 16.9792 24.4472 25.7833V27.3003C21.9339 27.3003 19.8969 29.3373 19.8969 31.8499V34.8831H12.3133C8.12756 34.888 4.73533 38.2809 4.73047 42.4667V65.2167C4.73047 66.054 5.40947 66.733 6.24677 66.733C7.08475 66.733 7.76376 66.054 7.76376 65.2167V50.0503H83.5973V83.4164C83.5973 85.9297 81.5596 87.9667 79.047 87.9667H12.3133C9.80076 87.9667 7.76376 85.9297 7.76376 83.4164V77.3499C7.76376 76.5126 7.08475 75.8336 6.24677 75.8336C5.40947 75.8336 4.73047 76.5126 4.73047 77.3499V83.4164ZM60.3919 15.0317C61.4326 16.4654 62.2574 18.0435 62.8399 19.7167H59.6046L60.3919 15.0317ZM41.1306 3.03329H50.2305V19.7167C50.2305 20.554 49.5515 21.233 48.7135 21.233H42.6469C41.8096 21.233 41.1306 20.554 41.1306 19.7167V3.03329ZM31.7558 19.7167H28.5205C29.1051 18.0435 29.9326 16.4647 30.9761 15.0317L31.7558 19.7167ZM27.4805 25.7833C27.4812 24.7669 27.5666 23.7525 27.7353 22.75H33.547C33.9928 22.75 34.4163 22.5535 34.7044 22.2133C34.9925 21.8724 35.1161 21.4225 35.0425 20.9831L33.5755 12.1866C34.928 10.9876 36.4519 9.99895 38.0973 9.25191V19.7167C38.0973 22.2293 40.1343 24.267 42.6469 24.267H48.7135C51.2268 24.267 53.2638 22.2293 53.2638 19.7167V9.25191C54.9085 9.99825 56.4324 10.9869 57.7849 12.1852L56.3179 20.9817C56.2443 21.4219 56.3679 21.8717 56.656 22.2126C56.9441 22.5535 57.3676 22.75 57.8133 22.75H63.6258C63.7938 23.7525 63.8792 24.7669 63.8806 25.7833V27.3003H27.4805V25.7833ZM22.9302 31.8499C22.9302 31.0126 23.6092 30.3336 24.4472 30.3336H66.9139C67.7512 30.3336 68.4302 31.0126 68.4302 31.8499V34.8831H22.9302V31.8499ZM7.76376 47.017V42.4667C7.76376 39.9534 9.80076 37.9164 12.3133 37.9164H79.047C81.5596 37.9164 83.5973 39.9534 83.5973 42.4667V47.017H7.76376Z" fill="#4F79FF"/>
<path d="M5.67169 72.6794C5.75778 72.7232 5.85012 72.7537 5.94454 72.7704C6.04521 72.787 6.14657 72.7974 6.24794 72.8009C6.64992 72.7947 7.03386 72.6378 7.32476 72.3607C7.46222 72.2156 7.57053 72.0462 7.64343 71.8602C7.87254 71.2943 7.74757 70.6473 7.32476 70.2071C7.17965 70.0703 7.01025 69.962 6.82418 69.8884C6.64228 69.8107 6.4465 69.7697 6.24794 69.7676C5.63211 69.7634 5.07461 70.1335 4.83856 70.7021C4.6025 71.2714 4.73372 71.9268 5.17112 72.3607L5.39884 72.5426C5.48354 72.6003 5.57518 72.6461 5.67169 72.6794Z" fill="#428DFF"/>
<path d="M15.225 41.8905C15.1945 41.7975 15.1487 41.71 15.0883 41.6323C15.0279 41.5413 14.9668 41.4656 14.9064 41.39L14.6786 41.2081C14.5946 41.1504 14.5023 41.1046 14.4058 41.0713C14.3197 41.0275 14.228 40.997 14.1329 40.9803C13.6858 40.8852 13.22 40.9977 12.8659 41.2872C12.5125 41.576 12.3091 42.0099 12.3125 42.4668C12.3153 42.6646 12.3563 42.8604 12.434 43.043C12.5111 43.227 12.6187 43.3957 12.7527 43.5436C13.0436 43.8206 13.4282 43.9775 13.8295 43.9831C13.9309 43.981 14.033 43.9706 14.1329 43.9532C14.228 43.9366 14.3197 43.906 14.4058 43.8623C14.5023 43.8289 14.5946 43.7831 14.6786 43.7255L14.9064 43.5436C15.0403 43.3957 15.148 43.227 15.225 43.043C15.3097 42.8632 15.3514 42.666 15.3465 42.4668C15.3437 42.3647 15.3333 42.2633 15.316 42.1634C15.2993 42.0683 15.2688 41.9766 15.225 41.8905Z" fill="#428DFF"/>
<path d="M21.2908 41.8905C21.2602 41.7975 21.2144 41.71 21.154 41.6323C21.0936 41.5413 21.0332 41.4656 20.9721 41.39L20.7444 41.2081C20.6604 41.1504 20.568 41.1046 20.4715 41.0713C20.3854 41.0275 20.2938 40.997 20.1987 40.9803C19.7515 40.8852 19.2857 40.9977 18.9323 41.2872C18.5782 41.576 18.3748 42.0099 18.379 42.4668C18.3811 42.6646 18.422 42.8604 18.4998 43.043C18.5768 43.227 18.6844 43.3957 18.8184 43.5436C19.1093 43.8206 19.494 43.9775 19.8953 43.9831C19.9973 43.981 20.0987 43.9706 20.1987 43.9532C20.2938 43.9366 20.3854 43.906 20.4715 43.8623C20.568 43.8289 20.6604 43.7831 20.7444 43.7255L20.9721 43.5436C21.1061 43.3957 21.2137 43.227 21.2908 43.043C21.3755 42.8632 21.4171 42.666 21.4123 42.4668C21.4095 42.3647 21.3991 42.2633 21.3817 42.1634C21.365 42.0683 21.3345 41.9766 21.2908 41.8905Z" fill="#428DFF"/>
<path d="M27.3611 41.8905C27.3312 41.7975 27.2847 41.71 27.2243 41.6323C27.1639 41.5413 27.1035 41.4656 27.0424 41.39L26.8154 41.2081C26.7307 41.1504 26.639 41.1046 26.5418 41.0713C26.4564 41.0275 26.3641 40.997 26.269 40.9803C25.8226 40.8852 25.356 40.9977 25.0026 41.2872C24.6485 41.576 24.4451 42.0099 24.4493 42.4668C24.4514 42.6646 24.493 42.8604 24.5701 43.043C24.6471 43.227 24.7548 43.3957 24.8888 43.5436C25.1797 43.8206 25.5643 43.9775 25.9656 43.9831C26.0676 43.981 26.169 43.9706 26.269 43.9532C26.3641 43.9366 26.4564 43.906 26.5418 43.8623C26.639 43.8289 26.7307 43.7831 26.8154 43.7255L27.0424 43.5436C27.1764 43.3957 27.284 43.227 27.3611 43.043C27.4458 42.8632 27.4874 42.666 27.4826 42.4668C27.4798 42.3647 27.4694 42.2633 27.452 42.1634C27.4354 42.0683 27.4048 41.9766 27.3611 41.8905Z" fill="#428DFF"/>
<path d="M33.3236 56.912C33.6436 56.451 33.6825 55.8505 33.4249 55.352C33.1673 54.8528 32.655 54.5376 32.0933 54.5313C31.5323 54.5251 31.013 54.8299 30.745 55.3228L18.6119 75.0395C18.3244 75.5068 18.3112 76.0927 18.5778 76.5718C18.8444 77.0508 19.3492 77.3487 19.8977 77.3508H28.9975V80.3841C28.9975 81.222 29.6765 81.901 30.5145 81.901C31.3518 81.901 32.0308 81.222 32.0308 80.3841V77.3508H33.5478C34.3851 77.3508 35.0641 76.6718 35.0641 75.8345C35.0641 74.9965 34.3851 74.3175 33.5478 74.3175H32.0308V71.2842C32.0308 70.4469 31.3518 69.7679 30.5145 69.7679C29.6765 69.7679 28.9975 70.4469 28.9975 71.2842V74.3175H22.6123L33.3236 56.912Z" fill="#F67F61"/>
<path d="M71.2411 56.9113C71.6265 56.2038 71.3904 55.3186 70.7045 54.8958C70.0192 54.473 69.1222 54.6598 68.6626 55.3221L56.5295 75.0388C56.242 75.5061 56.2295 76.092 56.4961 76.5711C56.7627 77.0501 57.2675 77.348 57.8153 77.3501H66.9158V80.3833C66.9158 81.2213 67.5948 81.9003 68.4321 81.9003C69.2701 81.9003 69.9491 81.2213 69.9491 80.3833V77.3501H71.4654C72.3034 77.3501 72.9824 76.6711 72.9824 75.8338C72.9824 74.9958 72.3034 74.3168 71.4654 74.3168H69.9491V71.2835C69.9491 70.4462 69.2701 69.7672 68.4321 69.7672C67.5948 69.7672 66.9158 70.4462 66.9158 71.2835V74.3168H60.5306L71.2411 56.9113Z" fill="#F67F61"/>
<path d="M48.7138 81.8999C51.2271 81.8999 53.2641 79.8629 53.2641 77.3496V59.1499C53.2641 56.6366 51.2271 54.5996 48.7138 54.5996H42.6472C40.1347 54.5996 38.0977 56.6366 38.0977 59.1499V77.3496C38.0977 79.8629 40.1347 81.8999 42.6472 81.8999H48.7138ZM41.1309 77.3496V59.1499C41.1309 58.3119 41.8099 57.6329 42.6472 57.6329H48.7138C49.5518 57.6329 50.2308 58.3119 50.2308 59.1499V77.3496C50.2308 78.1876 49.5518 78.8666 48.7138 78.8666H42.6472C41.8099 78.8666 41.1309 78.1876 41.1309 77.3496Z" fill="#F67F61"/>
</svg>
